<svg width="30" height="30" viewBox="0 0 30 30" fill="none" xmlns="http://www.w3.org/2000/svg">
<path d="M6.75928 13.2383L16.2423 3.75536C16.5736 3.424 16.7598 2.97457 16.7598 2.50595C16.7598 2.03734 16.5736 1.58791 16.2423 1.25655C15.9109 0.925189 15.4615 0.73903 14.9929 0.739031C14.5242 0.73903 14.0748 0.925189 13.7434 1.25655L1.2494 13.7506C1.08811 13.9158 0.960768 14.1111 0.874583 14.3253C0.696075 14.7574 0.696075 15.2426 0.874583 15.6747C0.960768 15.8889 1.08811 16.0842 1.2494 16.2494L13.7434 28.7434C14.0748 29.0748 14.5242 29.261 14.9929 29.261C15.4615 29.261 15.9109 29.0748 16.2423 28.7434C16.5736 28.4121 16.7598 27.9627 16.7598 27.494C16.7598 27.0254 16.5736 26.576 16.2423 26.2446L6.75928 16.7617L27.4869 16.7742C27.7202 16.7751 27.9513 16.7299 28.167 16.6411C28.3826 16.5522 28.5786 16.4216 28.7435 16.2566C28.9085 16.0917 29.0391 15.8958 29.128 15.6801C29.2168 15.4644 29.262 15.2333 29.261 15C29.262 14.7667 29.2168 14.5356 29.128 14.3199C29.0391 14.1042 28.9085 13.9083 28.7435 13.7434C28.5786 13.5784 28.3826 13.4478 28.167 13.3589C27.9513 13.2701 27.7202 13.2249 27.4869 13.2258L6.75928 13.2383Z" fill="white"/>
</svg>
