<svg width="26" height="32" viewBox="0 0 26 32" fill="none" xmlns="http://www.w3.org/2000/svg">
<path d="M22 4.72011C19.6131 2.33316 16.3757 0.992187 13 0.992188C9.62435 0.992188 6.38695 2.33316 4 4.72011C1.61305 7.10706 0.272079 10.3445 0.272079 13.7201C0.272079 17.0958 1.61305 20.3332 4 22.7201L11.905 30.6401C12.0444 30.7807 12.2103 30.8923 12.3931 30.9684C12.5759 31.0446 12.772 31.0838 12.97 31.0838C13.168 31.0838 13.3641 31.0446 13.5469 30.9684C13.7297 30.8923 13.8956 30.7807 14.035 30.6401L22 22.6451C24.377 20.2681 25.7123 17.0442 25.7123 13.6826C25.7123 10.321 24.377 7.09713 22 4.72011ZM19.855 20.5001L13 27.3851L6.145 20.5001C4.79072 19.1446 3.86872 17.418 3.49554 15.5385C3.12237 13.6591 3.31478 11.7112 4.04846 9.94113C4.78213 8.17103 6.02413 6.65818 7.61745 5.59383C9.21077 4.52947 11.0839 3.96138 13 3.96138C14.9161 3.96138 16.7892 4.52947 18.3826 5.59383C19.9759 6.65818 21.2179 8.17103 21.9515 9.94113C22.6852 11.7112 22.8776 13.6591 22.5045 15.5385C22.1313 17.418 21.2093 19.1446 19.855 20.5001ZM8.5 9.11511C7.28907 10.3298 6.60909 11.975 6.60909 13.6901C6.60909 15.4053 7.28907 17.0505 8.5 18.2651C9.39964 19.1663 10.5454 19.7817 11.7935 20.0342C13.0416 20.2867 14.3364 20.165 15.5156 19.6843C16.6948 19.2037 17.7058 18.3855 18.4217 17.3325C19.1377 16.2794 19.5267 15.0384 19.54 13.7651C19.5468 12.9149 19.383 12.072 19.0584 11.2862C18.7337 10.5004 18.2548 9.78764 17.65 9.19011C17.0555 8.58198 16.3466 8.09742 15.5641 7.76431C14.7816 7.4312 13.941 7.25612 13.0906 7.24915C12.2402 7.24218 11.3968 7.40346 10.609 7.72369C9.82112 8.04393 9.10438 8.51681 8.5 9.11511ZM15.535 16.1351C14.9666 16.7122 14.2153 17.074 13.4097 17.1585C12.6041 17.243 11.7941 17.0451 11.1183 16.5985C10.4424 16.1519 9.9427 15.4845 9.70451 14.7102C9.46633 13.936 9.50448 13.1031 9.81244 12.3538C10.1204 11.6046 10.6791 10.9856 11.3929 10.6027C12.1067 10.2198 12.9314 10.0967 13.7259 10.2545C14.5204 10.4123 15.2355 10.8412 15.7488 11.4679C16.2621 12.0946 16.5417 12.8801 16.54 13.6901C16.5182 14.616 16.1297 15.4954 15.46 16.1351H15.535Z" fill="#0061FE"/>
</svg>
