<svg width="30" height="30" viewBox="0 0 30 30" fill="none" xmlns="http://www.w3.org/2000/svg">
<path d="M15 1.45201e-08C12.6991 -0.000101216 10.4291 0.529111 8.36543 1.5467C6.30181 2.56428 4.49994 4.04296 3.09921 5.86834C1.69849 7.69372 0.736472 9.81686 0.287575 12.0735C-0.161323 14.3302 -0.0850631 16.6599 0.510455 18.8823C1.10597 21.1048 2.20478 23.1605 3.72188 24.8904C5.23898 26.6202 7.1337 27.9779 9.25945 28.8584C11.3852 29.7388 13.685 30.1184 15.981 29.9678C18.2769 29.8173 20.5074 29.1405 22.5 27.99C22.6792 27.8962 22.8377 27.7672 22.9658 27.6106C23.0939 27.454 23.1889 27.2731 23.2453 27.0788C23.3017 26.8845 23.3182 26.6808 23.2938 26.48C23.2694 26.2792 23.2046 26.0854 23.1034 25.9102C23.0021 25.7351 22.8665 25.5822 22.7046 25.4608C22.5428 25.3395 22.3581 25.2521 22.1616 25.2039C21.9651 25.1558 21.7609 25.1479 21.5613 25.1808C21.3616 25.2136 21.1707 25.2865 21 25.395C18.7124 26.7157 16.0529 27.2448 13.434 26.9001C10.8151 26.5554 8.38311 25.3562 6.51518 23.4885C4.64726 21.6207 3.44779 19.1889 3.10278 16.57C2.75778 13.9511 3.28652 11.2916 4.60701 9.00386C5.9275 6.71611 7.96595 4.92798 10.4062 3.91679C12.8465 2.90559 15.5523 2.72782 18.1039 3.41106C20.6555 4.0943 22.9103 5.60036 24.5188 7.69569C26.1272 9.79101 26.9994 12.3585 27 15V16.125C27 16.8212 26.7234 17.4889 26.2311 17.9812C25.7389 18.4734 25.0712 18.75 24.375 18.75C23.6788 18.75 23.0111 18.4734 22.5188 17.9812C22.0266 17.4889 21.75 16.8212 21.75 16.125V9.75C21.75 9.35218 21.592 8.97064 21.3107 8.68934C21.0293 8.40804 20.6478 8.25 20.25 8.25C19.9012 8.24224 19.5606 8.35632 19.2868 8.57261C19.013 8.78889 18.8232 9.09386 18.75 9.435C17.6474 8.67237 16.3406 8.25944 15 8.25C13.8707 8.2365 12.7561 8.50654 11.7583 9.03539C10.7605 9.56425 9.91124 10.335 9.28845 11.2771C8.66566 12.2192 8.28919 13.3025 8.19353 14.4277C8.09787 15.553 8.28607 16.6843 8.74089 17.718C9.19572 18.7517 9.90263 19.6548 10.7969 20.3445C11.6911 21.0342 12.7442 21.4885 13.8595 21.6658C14.9748 21.8431 16.1168 21.7378 17.1808 21.3594C18.2449 20.981 19.197 20.3417 19.95 19.5C20.6627 20.423 21.6453 21.1009 22.7612 21.4395C23.8771 21.7782 25.0707 21.7606 26.1762 21.3894C27.2816 21.0182 28.2439 20.3117 28.9292 19.3682C29.6146 18.4247 29.9888 17.2911 30 16.125V15C30 13.0302 29.612 11.0796 28.8582 9.25975C28.1044 7.43986 26.9995 5.78628 25.6066 4.3934C24.2137 3.00052 22.5601 1.89563 20.7402 1.14181C18.9204 0.387987 16.9698 1.45201e-08 15 1.45201e-08ZM15 18.75C14.2583 18.75 13.5333 18.5301 12.9166 18.118C12.2999 17.706 11.8193 17.1203 11.5354 16.4351C11.2516 15.7498 11.1774 14.9958 11.322 14.2684C11.4667 13.541 11.8239 12.8728 12.3483 12.3484C12.8728 11.8239 13.541 11.4668 14.2684 11.3221C14.9958 11.1774 15.7498 11.2516 16.4351 11.5355C17.1203 11.8193 17.7059 12.2999 18.118 12.9166C18.5301 13.5333 18.75 14.2583 18.75 15C18.75 15.9946 18.3549 16.9484 17.6516 17.6517C16.9484 18.3549 15.9946 18.75 15 18.75Z" fill="#0061FE"/>
</svg>
