<svg width="22" height="30" viewBox="0 0 22 30" fill="none" xmlns="http://www.w3.org/2000/svg">
<path d="M17 0H5C3.80653 0 2.66193 0.474106 1.81802 1.31802C0.974106 2.16193 0.5 3.30653 0.5 4.5V25.5C0.5 26.6935 0.974106 27.8381 1.81802 28.682C2.66193 29.5259 3.80653 30 5 30H17C18.1935 30 19.3381 29.5259 20.182 28.682C21.0259 27.8381 21.5 26.6935 21.5 25.5V4.5C21.5 3.30653 21.0259 2.16193 20.182 1.31802C19.3381 0.474106 18.1935 0 17 0ZM18.5 25.5C18.5 25.8978 18.342 26.2794 18.0607 26.5607C17.7794 26.842 17.3978 27 17 27H5C4.60218 27 4.22064 26.842 3.93934 26.5607C3.65804 26.2794 3.5 25.8978 3.5 25.5V24H18.5V25.5ZM18.5 21H3.5V4.5C3.5 4.10218 3.65804 3.72064 3.93934 3.43934C4.22064 3.15804 4.60218 3 5 3H17C17.3978 3 17.7794 3.15804 18.0607 3.43934C18.342 3.72064 18.5 4.10218 18.5 4.5V21Z" fill="#0061FE"/>
</svg>
