<svg width="103" height="104" viewBox="0 0 103 104" fill="none" xmlns="http://www.w3.org/2000/svg">
<path d="M2.50679 65.8945C10.2574 93.997 37.7028 108.518 64.5742 101.107C91.446 93.696 109.979 62.9418 99.817 39.0568C89.654 15.1718 66.0934 -8.00139 37.7494 3.84387C9.40528 15.6892 -5.24374 37.7919 2.50679 65.8945Z" fill="#F29111"/>
<path fill-rule="evenodd" clip-rule="evenodd" d="M58.5976 30.0849C59.6593 30.4023 60.2617 31.5172 59.9432 32.5752L47.9011 72.5742C47.5826 73.6322 46.4637 74.2325 45.402 73.9151C44.3403 73.5977 43.7379 72.4828 44.0564 71.4248L56.0985 31.4258C56.417 30.3678 57.5359 29.7675 58.5976 30.0849ZM41.4681 36.6834C42.198 37.5146 42.1135 38.7781 41.2793 39.5055L26.9494 52L41.2793 64.4945C42.1135 65.2219 42.198 66.4854 41.4681 67.3166C40.7382 68.1479 39.4702 68.2321 38.6361 67.5048L22.5799 53.5051C22.1444 53.1254 21.8945 52.5767 21.8945 52C21.8945 51.4233 22.1444 50.8746 22.5799 50.4949L38.6361 36.4952C39.4702 35.7679 40.7382 35.8521 41.4681 36.6834ZM62.5315 36.6834C63.2614 35.8521 64.5293 35.7679 65.3635 36.4952L81.4197 50.4949C81.8552 50.8746 82.1051 51.4233 82.1051 52C82.1051 52.5767 81.8552 53.1254 81.4197 53.5051L65.3635 67.5048C64.5293 68.2321 63.2614 68.1479 62.5315 67.3166C61.8016 66.4854 61.8861 65.2219 62.7203 64.4945L77.0502 52L62.7203 39.5055C61.8861 38.7781 61.8016 37.5146 62.5315 36.6834Z" fill="white" stroke="white" stroke-linecap="round" stroke-linejoin="round"/>
</svg>
