<svg width="103" height="103" viewBox="0 0 103 103" fill="none" xmlns="http://www.w3.org/2000/svg">
<g clip-path="url(#clip0)">
<path d="M2.50708 65.8945C10.2577 93.9971 37.7031 108.518 64.5744 101.107C91.4458 93.6964 109.98 62.9418 99.817 39.0568C89.6542 15.1718 66.0936 -8.00136 37.7496 3.84393C9.40558 15.6892 -5.24349 37.7919 2.50708 65.8945Z" fill="#009F72"/>
<path d="M79.1667 36.1167C79.169 35.7328 79.0954 35.3523 78.9503 34.997C78.8051 34.6416 78.5912 34.3184 78.3209 34.0459L65.9542 21.6792C65.6817 21.4089 65.3585 21.195 65.0031 21.0499C64.6478 20.9047 64.2673 20.8311 63.8834 20.8334C63.4996 20.8311 63.119 20.9047 62.7637 21.0499C62.4083 21.195 62.0851 21.4089 61.8126 21.6792L53.5584 29.9334L21.6793 61.8125C21.4089 62.0851 21.1951 62.4083 21.0499 62.7636C20.9048 63.119 20.8312 63.4995 20.8334 63.8834V76.25C20.8334 77.0236 21.1407 77.7655 21.6877 78.3124C22.2347 78.8594 22.9765 79.1667 23.7501 79.1667H36.1168C36.5249 79.1889 36.9331 79.1251 37.315 78.9794C37.6968 78.8336 38.0438 78.6093 38.3334 78.3209L70.0376 46.4417L78.3209 38.3334C78.5871 38.0507 78.804 37.7253 78.9626 37.3709C78.9907 37.1384 78.9907 36.9034 78.9626 36.6709C78.9762 36.5351 78.9762 36.3983 78.9626 36.2625L79.1667 36.1167ZM34.9209 73.3334H26.6668V65.0792L55.6293 36.1167L63.8834 44.3709L34.9209 73.3334ZM67.9959 40.2584L59.7418 32.0042L63.8834 27.8917L72.1084 36.1167L67.9959 40.2584Z" fill="white"/>
</g>
<defs>
<clipPath id="clip0">
<rect width="103" height="103" fill="white"/>
</clipPath>
</defs>
</svg>
