<svg width="103" height="103" viewBox="0 0 103 103" fill="none" xmlns="http://www.w3.org/2000/svg">
<g clip-path="url(#clip0)">
<path d="M2.50708 65.8945C10.2577 93.9971 37.7031 108.518 64.5744 101.107C91.4458 93.6964 109.98 62.9418 99.817 39.0568C89.6542 15.1718 66.0936 -8.00136 37.7496 3.84393C9.40558 15.6892 -5.24349 37.7919 2.50708 65.8945Z" fill="#009F72"/>
<path d="M80.1667 37.1167C80.169 36.7328 80.0954 36.3523 79.9503 35.997C79.8051 35.6416 79.5912 35.3184 79.3209 35.0459L66.9542 22.6792C66.6817 22.4089 66.3585 22.195 66.0031 22.0499C65.6478 21.9047 65.2673 21.8311 64.8834 21.8334C64.4996 21.8311 64.119 21.9047 63.7637 22.0499C63.4083 22.195 63.0851 22.4089 62.8126 22.6792L54.5584 30.9334L22.6793 62.8125C22.4089 63.0851 22.1951 63.4083 22.0499 63.7636C21.9048 64.119 21.8312 64.4995 21.8334 64.8834V77.25C21.8334 78.0236 22.1407 78.7655 22.6877 79.3124C23.2347 79.8594 23.9765 80.1667 24.7501 80.1667H37.1168C37.5249 80.1889 37.9331 80.1251 38.315 79.9794C38.6968 79.8336 39.0438 79.6093 39.3334 79.3209L71.0376 47.4417L79.3209 39.3334C79.5871 39.0507 79.804 38.7253 79.9626 38.3709C79.9907 38.1384 79.9907 37.9034 79.9626 37.6709C79.9762 37.5351 79.9762 37.3983 79.9626 37.2625L80.1667 37.1167ZM35.9209 74.3334H27.6668V66.0792L56.6293 37.1167L64.8834 45.3709L35.9209 74.3334ZM68.9959 41.2584L60.7418 33.0042L64.8834 28.8917L73.1084 37.1167L68.9959 41.2584Z" fill="white"/>
</g>
<defs>
<clipPath id="clip0">
<rect width="103" height="103" fill="white"/>
</clipPath>
</defs>
</svg>
