<svg width="103" height="104" viewBox="0 0 103 104" fill="none" xmlns="http://www.w3.org/2000/svg">
<path d="M2.50711 65.8945C10.2577 93.997 37.7031 108.518 64.5745 101.107C91.446 93.696 109.98 62.9418 99.817 39.0568C89.654 15.1718 66.0936 -8.00136 37.7496 3.8439C9.40561 15.6892 -5.24348 37.7919 2.50711 65.8945Z" fill="#009F72"/>
<g clip-path="url(#clip0)">
<path d="M81.1615 31.5086L73.4908 23.8379C72.3735 22.7206 70.5554 22.7208 69.4382 23.8379L54.9956 38.2803C54.634 38.6421 54.634 39.2283 54.9956 39.59C55.3573 39.9515 55.9436 39.9515 56.3052 39.59L70.7476 25.1476C70.9391 24.9561 71.1937 24.8508 71.4644 24.8508C71.7351 24.8508 71.9896 24.9561 72.1811 25.1476L79.8519 32.8183C80.0433 33.0097 80.1488 33.2642 80.1488 33.5351C80.1488 33.8058 80.0433 34.0603 79.8519 34.2517L77.9694 36.1342L73.0371 31.202C72.6755 30.8404 72.0892 30.8404 71.7276 31.202C71.3659 31.5637 71.3659 32.1499 71.7276 32.5117L76.6597 37.4438L74.509 39.5946L72.3413 37.4269C71.9796 37.0653 71.3933 37.0653 71.0317 37.4269C70.6701 37.7886 70.6701 38.3748 71.0317 38.7365L73.1994 40.9042L71.0487 43.0549L68.881 40.8872C68.5193 40.5256 67.933 40.5256 67.5714 40.8872C67.2097 41.2489 67.2097 41.8351 67.5714 42.1968L69.7391 44.3645L67.5884 46.5152L62.6561 41.5828C62.2945 41.2214 61.7081 41.2211 61.3465 41.5828C60.9849 41.9445 60.9849 42.5307 61.3465 42.8925L66.2788 47.8248L64.1281 49.9755L61.9603 47.8078C61.5987 47.4463 61.0124 47.4463 60.6508 47.8078C60.2891 48.1695 60.2891 48.7557 60.6508 49.1175L62.8184 51.2851L60.9989 53.1045L51.8947 44.0004L53.5881 42.3069C53.9497 41.9451 53.9497 41.359 53.5881 40.9972C53.2265 40.6357 52.6402 40.6357 52.2785 40.9972L50.5851 42.6907L33.5029 25.6091C32.3148 24.421 30.7352 23.7668 29.0551 23.7668C27.375 23.7669 25.7955 24.4211 24.6075 25.6092C23.4194 26.7972 22.7651 28.3767 22.7651 30.0569C22.7651 31.7371 23.4194 33.3166 24.6074 34.5047L41.6892 51.5865L22.8389 70.4372C21.7217 71.5545 21.7217 73.3725 22.8389 74.4899L30.5097 82.1607C31.0508 82.7019 31.7705 83 32.536 83C33.3014 83 34.0211 82.7019 34.5622 82.1607L53.4128 63.3102L54.7554 64.6528C55.1171 65.0143 55.7033 65.0143 56.065 64.6528C56.4266 64.291 56.4266 63.7049 56.065 63.3431L54.2118 61.4899C54.1758 61.4329 54.1336 61.3788 54.084 61.3292C54.0345 61.2797 53.9803 61.2375 53.9235 61.2015L33.8583 41.1363L36.3416 38.653L37.877 40.1884C38.0578 40.3691 38.2948 40.4595 38.5319 40.4595C38.7689 40.4595 39.0059 40.3691 39.1867 40.1884C39.5483 39.8266 39.5483 39.2404 39.1867 38.8787L37.6514 37.3434L40.1347 34.8601L49.9292 44.6545C49.9295 44.655 49.9299 44.6553 49.9303 44.6558C49.9308 44.6563 49.9312 44.6565 49.9316 44.657L60.2536 54.979C60.2792 55.0127 60.3063 55.0458 60.3372 55.0766C60.368 55.1074 60.4009 55.1346 60.4347 55.1601L74.177 68.9025L71.6937 71.3858L57.8285 57.5206C57.8202 57.5116 57.8127 57.5021 57.8039 57.4935L52.2748 51.9642C52.2656 51.9551 52.2557 51.9471 52.2463 51.9384L42.4796 42.1718C42.1179 41.8102 41.5316 41.8102 41.17 42.1718C40.8083 42.5335 40.8083 43.1197 41.17 43.4815L70.3838 72.6953L67.9003 75.1786L59.1 66.3781C58.7384 66.0166 58.1521 66.0166 57.7905 66.3781C57.4288 66.7399 57.4288 67.3261 57.7905 67.6878L67.2456 77.143C67.3355 77.2329 67.4468 77.3054 67.5653 77.3513L78.7541 81.6954C78.9306 81.7638 79.1146 81.7971 79.2972 81.7971C79.6888 81.7971 80.0734 81.6438 80.3604 81.3566C80.7812 80.9355 80.9137 80.3051 80.6979 79.7503L76.3493 68.5666C76.3034 68.4485 76.2308 68.3369 76.1411 68.2473L62.3084 54.4146L81.1615 35.5613C82.2789 34.444 82.2789 32.626 81.1615 31.5086ZM52.1036 62.0006L50.2863 63.8174L48.1186 61.6496C47.757 61.2881 47.1707 61.2881 46.809 61.6496C46.4474 62.0114 46.4474 62.5976 46.809 62.9593L48.9768 65.127L46.826 67.2778L41.8937 62.3455C41.5321 61.984 40.9458 61.984 40.5842 62.3455C40.2225 62.7072 40.2225 63.2934 40.5842 63.6552L45.5165 68.5875L43.3657 70.7382L41.198 68.5705C40.8363 68.209 40.2501 68.209 39.8884 68.5705C39.5268 68.9322 39.5268 69.5184 39.8884 69.8802L42.0562 72.0478L39.9054 74.1985L37.7377 72.0308C37.376 71.6693 36.7897 71.6693 36.4281 72.0308C36.0665 72.3926 36.0665 72.9787 36.4281 73.3405L38.5958 75.5082L36.4451 77.659L31.5128 72.7267C31.1511 72.3651 30.5649 72.3651 30.2032 72.7267C29.8416 73.0884 29.8416 73.6746 30.2032 74.0363L35.1355 78.9685L33.253 80.851C33.0615 81.0425 32.807 81.148 32.5363 81.148C32.2656 81.148 32.0111 81.0425 31.8196 80.851L24.1488 73.1802C23.7537 72.785 23.7537 72.142 24.1488 71.7468L42.9993 52.8963L52.1036 62.0006ZM25.917 33.1951C24.1866 31.4647 24.1866 28.6492 25.917 26.9188C27.6474 25.1883 30.4629 25.1883 32.1933 26.9188L35.1202 29.8456L28.8439 36.122L25.917 33.1951ZM35.6875 36.6879C35.6872 36.6881 35.687 36.6882 35.6869 36.6885C35.6867 36.6887 35.6865 36.6889 35.6863 36.689L32.5487 39.8266L30.1535 37.4314L36.4299 31.1551L38.8251 33.5503L35.6875 36.6879ZM78.6842 79.6814L69.5595 76.1389L75.1377 70.5607L78.6842 79.6814Z" fill="white"/>
</g>
<defs>
<clipPath id="clip0">
<rect width="60" height="60" fill="white" transform="translate(22 23)"/>
</clipPath>
</defs>
</svg>
