<svg width="103" height="104" viewBox="0 0 103 104" fill="none" xmlns="http://www.w3.org/2000/svg">
<path d="M2.50711 65.8945C10.2577 93.997 37.7031 108.518 64.5745 101.107C91.446 93.696 109.98 62.9418 99.817 39.0568C89.654 15.1718 66.0936 -8.00136 37.7496 3.8439C9.40561 15.6892 -5.24348 37.7919 2.50711 65.8945Z" fill="#0054A0"/>
<path d="M77.9167 60.5001C77.9105 58.7993 77.3941 57.1395 76.4344 55.7353C75.4747 54.3311 74.1158 53.2471 72.5334 52.6234L77.8317 32.7901C77.9424 32.3677 77.954 31.9255 77.8655 31.4979C77.7771 31.0703 77.591 30.6689 77.3218 30.3251C77.0465 30.003 76.7026 29.7467 76.3152 29.575C75.9278 29.4034 75.5069 29.3209 75.0834 29.3334H36.2667L35.3317 25.7634C35.1692 25.1597 34.8115 24.6267 34.3144 24.2474C33.8173 23.8682 33.2087 23.664 32.5834 23.6668H26.9167V29.3334H30.4018L37.4284 55.5701C37.5944 56.1882 37.9649 56.7319 38.4794 57.1127C38.9939 57.4934 39.6221 57.6887 40.2617 57.6668H69.4167C70.1682 57.6668 70.8889 57.9653 71.4202 58.4966C71.9516 59.028 72.2501 59.7487 72.2501 60.5001C72.2501 61.2516 71.9516 61.9722 71.4202 62.5036C70.8889 63.0349 70.1682 63.3334 69.4167 63.3334H32.5834C31.832 63.3334 31.1113 63.632 30.5799 64.1633C30.0486 64.6947 29.7501 65.4153 29.7501 66.1668C29.7501 66.9182 30.0486 67.6389 30.5799 68.1702C31.1113 68.7016 31.832 69.0001 32.5834 69.0001H35.9268C35.4608 70.284 35.311 71.6612 35.4902 73.0153C35.6694 74.3693 36.1722 75.6602 36.9561 76.7786C37.7401 77.8971 38.7819 78.8102 39.9936 79.4406C41.2052 80.071 42.5509 80.4001 43.9167 80.4001C45.2826 80.4001 46.6283 80.071 47.8399 79.4406C49.0516 78.8102 50.0934 77.8971 50.8773 76.7786C51.6612 75.6602 52.1641 74.3693 52.3433 73.0153C52.5225 71.6612 52.3727 70.284 51.9067 69.0001H58.5934C58.1692 70.1692 58.0067 71.417 58.1174 72.6557C58.228 73.8944 58.6092 75.0938 59.2339 76.1691C59.8586 77.2444 60.7116 78.1696 61.7329 78.8793C62.7541 79.5891 63.9186 80.066 65.1443 80.2766C66.3699 80.4872 67.6269 80.4263 68.8265 80.0982C70.026 79.77 71.139 79.1827 72.0868 78.3775C73.0346 77.5724 73.7942 76.569 74.3119 75.4383C74.8297 74.3076 75.0931 73.077 75.0834 71.8334C75.0781 70.3696 74.6872 68.9331 73.9501 67.6684C75.1617 66.9046 76.1606 65.8469 76.854 64.5937C77.5475 63.3405 77.9131 61.9324 77.9167 60.5001ZM66.8384 52.0001H42.5001L37.7967 35.0001H71.4001L66.8384 52.0001ZM43.9167 74.6668C43.3564 74.6668 42.8086 74.5006 42.3426 74.1893C41.8767 73.8779 41.5135 73.4354 41.2991 72.9177C41.0846 72.4 41.0285 71.8303 41.1379 71.2807C41.2472 70.7311 41.517 70.2262 41.9133 69.83C42.3095 69.4337 42.8144 69.1639 43.364 69.0546C43.9136 68.9452 44.4833 69.0013 45.001 69.2158C45.5187 69.4302 45.9612 69.7934 46.2726 70.2593C46.5839 70.7253 46.7501 71.2731 46.7501 71.8334C46.7501 72.5849 46.4516 73.3056 45.9202 73.8369C45.3889 74.3683 44.6682 74.6668 43.9167 74.6668ZM66.5834 74.6668C66.023 74.6668 65.4752 74.5006 65.0093 74.1893C64.5434 73.8779 64.1802 73.4354 63.9658 72.9177C63.7513 72.4 63.6952 71.8303 63.8045 71.2807C63.9138 70.7311 64.1837 70.2262 64.5799 69.83C64.9762 69.4337 65.481 69.1639 66.0307 69.0546C66.5803 68.9452 67.15 69.0013 67.6677 69.2158C68.1854 69.4302 68.6279 69.7934 68.9392 70.2593C69.2506 70.7253 69.4167 71.2731 69.4167 71.8334C69.4167 72.5849 69.1182 73.3056 68.5869 73.8369C68.0555 74.3683 67.3349 74.6668 66.5834 74.6668Z" fill="white"/>
</svg>
