<svg width="143" height="308" viewBox="0 0 143 308" fill="none" xmlns="http://www.w3.org/2000/svg">
<path fill-rule="evenodd" clip-rule="evenodd" d="M153.504 308C151.021 308 149.008 305.997 149.008 303.527C149.008 301.056 151.021 299.054 153.504 299.054C155.987 299.054 158 301.056 158 303.527C158 305.997 155.987 308 153.504 308ZM153.504 276.688C151.021 276.688 149.008 274.685 149.008 272.215C149.008 269.744 151.021 267.742 153.504 267.742C155.987 267.742 158 269.744 158 272.215C158 274.685 155.987 276.688 153.504 276.688ZM153.504 245.376C151.021 245.376 149.008 243.373 149.008 240.903C149.008 238.432 151.021 236.43 153.504 236.43C155.987 236.43 158 238.432 158 240.903C158 243.373 155.987 245.376 153.504 245.376ZM153.504 214.064C151.021 214.064 149.008 212.061 149.008 209.591C149.008 207.12 151.021 205.118 153.504 205.118C155.987 205.118 158 207.12 158 209.591C158 212.061 155.987 214.064 153.504 214.064ZM153.504 182.752C151.021 182.752 149.008 180.749 149.008 178.279C149.008 175.808 151.021 173.806 153.504 173.806C155.987 173.806 158 175.808 158 178.279C158 180.749 155.987 182.752 153.504 182.752ZM153.504 151.44C151.021 151.44 149.008 149.437 149.008 146.967C149.008 144.496 151.021 142.494 153.504 142.494C155.987 142.494 158 144.496 158 146.967C158 149.437 155.987 151.44 153.504 151.44ZM123.959 308C121.476 308 119.463 305.997 119.463 303.527C119.463 301.056 121.476 299.054 123.959 299.054C126.442 299.054 128.455 301.056 128.455 303.527C128.455 305.997 126.442 308 123.959 308ZM123.959 276.688C121.476 276.688 119.463 274.685 119.463 272.215C119.463 269.744 121.476 267.742 123.959 267.742C126.442 267.742 128.455 269.744 128.455 272.215C128.455 274.685 126.442 276.688 123.959 276.688ZM123.959 245.376C121.476 245.376 119.463 243.373 119.463 240.903C119.463 238.432 121.476 236.43 123.959 236.43C126.442 236.43 128.455 238.432 128.455 240.903C128.455 243.373 126.442 245.376 123.959 245.376ZM123.959 214.064C121.476 214.064 119.463 212.061 119.463 209.591C119.463 207.12 121.476 205.118 123.959 205.118C126.442 205.118 128.455 207.12 128.455 209.591C128.455 212.061 126.442 214.064 123.959 214.064ZM123.959 182.752C121.476 182.752 119.463 180.749 119.463 178.279C119.463 175.808 121.476 173.806 123.959 173.806C126.442 173.806 128.455 175.808 128.455 178.279C128.455 180.749 126.442 182.752 123.959 182.752ZM123.959 151.44C121.476 151.44 119.463 149.437 119.463 146.967C119.463 144.496 121.476 142.494 123.959 142.494C126.442 142.494 128.455 144.496 128.455 146.967C128.455 149.437 126.442 151.44 123.959 151.44ZM94.4146 308C91.9316 308 89.9187 305.997 89.9187 303.527C89.9187 301.056 91.9316 299.054 94.4146 299.054C96.8977 299.054 98.9106 301.056 98.9106 303.527C98.9106 305.997 96.8977 308 94.4146 308ZM94.4146 276.688C91.9316 276.688 89.9187 274.685 89.9187 272.215C89.9187 269.744 91.9316 267.742 94.4146 267.742C96.8977 267.742 98.9106 269.744 98.9106 272.215C98.9106 274.685 96.8977 276.688 94.4146 276.688ZM94.4146 245.376C91.9316 245.376 89.9187 243.373 89.9187 240.903C89.9187 238.432 91.9316 236.43 94.4146 236.43C96.8977 236.43 98.9106 238.432 98.9106 240.903C98.9106 243.373 96.8977 245.376 94.4146 245.376ZM94.4146 214.064C91.9316 214.064 89.9187 212.061 89.9187 209.591C89.9187 207.12 91.9316 205.118 94.4146 205.118C96.8977 205.118 98.9106 207.12 98.9106 209.591C98.9106 212.061 96.8977 214.064 94.4146 214.064ZM94.4146 182.752C91.9316 182.752 89.9187 180.749 89.9187 178.279C89.9187 175.808 91.9316 173.806 94.4146 173.806C96.8977 173.806 98.9106 175.808 98.9106 178.279C98.9106 180.749 96.8977 182.752 94.4146 182.752ZM94.4146 151.44C91.9316 151.44 89.9187 149.437 89.9187 146.967C89.9187 144.496 91.9316 142.494 94.4146 142.494C96.8977 142.494 98.9106 144.496 98.9106 146.967C98.9106 149.437 96.8977 151.44 94.4146 151.44ZM63.5854 308C61.1023 308 59.0894 305.997 59.0894 303.527C59.0894 301.056 61.1023 299.054 63.5854 299.054C66.0684 299.054 68.0813 301.056 68.0813 303.527C68.0813 305.997 66.0684 308 63.5854 308ZM63.5854 276.688C61.1023 276.688 59.0894 274.685 59.0894 272.215C59.0894 269.744 61.1023 267.742 63.5854 267.742C66.0684 267.742 68.0813 269.744 68.0813 272.215C68.0813 274.685 66.0684 276.688 63.5854 276.688ZM63.5854 245.376C61.1023 245.376 59.0894 243.373 59.0894 240.903C59.0894 238.432 61.1023 236.43 63.5854 236.43C66.0684 236.43 68.0813 238.432 68.0813 240.903C68.0813 243.373 66.0684 245.376 63.5854 245.376ZM63.5854 214.064C61.1023 214.064 59.0894 212.061 59.0894 209.591C59.0894 207.12 61.1023 205.118 63.5854 205.118C66.0684 205.118 68.0813 207.12 68.0813 209.591C68.0813 212.061 66.0684 214.064 63.5854 214.064ZM63.5854 182.752C61.1023 182.752 59.0894 180.749 59.0894 178.279C59.0894 175.808 61.1023 173.806 63.5854 173.806C66.0684 173.806 68.0813 175.808 68.0813 178.279C68.0813 180.749 66.0684 182.752 63.5854 182.752ZM63.5854 151.44C61.1023 151.44 59.0894 149.437 59.0894 146.967C59.0894 144.496 61.1023 142.494 63.5854 142.494C66.0684 142.494 68.0813 144.496 68.0813 146.967C68.0813 149.437 66.0684 151.44 63.5854 151.44ZM34.0406 308C31.5576 308 29.5447 305.997 29.5447 303.527C29.5447 301.056 31.5576 299.054 34.0406 299.054C36.5237 299.054 38.5366 301.056 38.5366 303.527C38.5366 305.997 36.5237 308 34.0406 308ZM34.0406 276.688C31.5576 276.688 29.5447 274.685 29.5447 272.215C29.5447 269.744 31.5576 267.742 34.0406 267.742C36.5237 267.742 38.5366 269.744 38.5366 272.215C38.5366 274.685 36.5237 276.688 34.0406 276.688ZM34.0406 245.376C31.5576 245.376 29.5447 243.373 29.5447 240.903C29.5447 238.432 31.5576 236.43 34.0406 236.43C36.5237 236.43 38.5366 238.432 38.5366 240.903C38.5366 243.373 36.5237 245.376 34.0406 245.376ZM34.0406 214.064C31.5576 214.064 29.5447 212.061 29.5447 209.591C29.5447 207.12 31.5576 205.118 34.0406 205.118C36.5237 205.118 38.5366 207.12 38.5366 209.591C38.5366 212.061 36.5237 214.064 34.0406 214.064ZM34.0406 182.752C31.5576 182.752 29.5447 180.749 29.5447 178.279C29.5447 175.808 31.5576 173.806 34.0406 173.806C36.5237 173.806 38.5366 175.808 38.5366 178.279C38.5366 180.749 36.5237 182.752 34.0406 182.752ZM34.0406 151.44C31.5576 151.44 29.5447 149.437 29.5447 146.967C29.5447 144.496 31.5576 142.494 34.0406 142.494C36.5237 142.494 38.5366 144.496 38.5366 146.967C38.5366 149.437 36.5237 151.44 34.0406 151.44ZM4.49593 308C2.0129 308 0 305.997 0 303.527C0 301.056 2.0129 299.054 4.49593 299.054C6.97897 299.054 8.99187 301.056 8.99187 303.527C8.99187 305.997 6.97897 308 4.49593 308ZM4.49593 276.688C2.0129 276.688 0 274.685 0 272.215C0 269.744 2.0129 267.742 4.49593 267.742C6.97897 267.742 8.99187 269.744 8.99187 272.215C8.99187 274.685 6.97897 276.688 4.49593 276.688ZM4.49593 245.376C2.0129 245.376 0 243.373 0 240.903C0 238.432 2.0129 236.43 4.49593 236.43C6.97897 236.43 8.99187 238.432 8.99187 240.903C8.99187 243.373 6.97897 245.376 4.49593 245.376ZM4.49593 214.064C2.0129 214.064 0 212.061 0 209.591C0 207.12 2.0129 205.118 4.49593 205.118C6.97897 205.118 8.99187 207.12 8.99187 209.591C8.99187 212.061 6.97897 214.064 4.49593 214.064ZM4.49593 182.752C2.0129 182.752 0 180.749 0 178.279C0 175.808 2.0129 173.806 4.49593 173.806C6.97897 173.806 8.99187 175.808 8.99187 178.279C8.99187 180.749 6.97897 182.752 4.49593 182.752ZM4.49593 151.44C2.0129 151.44 0 149.437 0 146.967C0 144.496 2.0129 142.494 4.49593 142.494C6.97897 142.494 8.99187 144.496 8.99187 146.967C8.99187 149.437 6.97897 151.44 4.49593 151.44Z" fill="white"/>
<path fill-rule="evenodd" clip-rule="evenodd" d="M123.959 119.506C121.476 119.506 119.463 117.504 119.463 115.033C119.463 112.563 121.476 110.56 123.959 110.56C126.442 110.56 128.455 112.563 128.455 115.033C128.455 117.504 126.442 119.506 123.959 119.506Z" fill="white"/>
<path fill-rule="evenodd" clip-rule="evenodd" d="M123.959 88.1945C121.476 88.1945 119.463 86.1918 119.463 83.7213C119.463 81.2509 121.476 79.2482 123.959 79.2482C126.442 79.2482 128.455 81.2509 128.455 83.7213C128.455 86.1918 126.442 88.1945 123.959 88.1945Z" fill="white"/>
<path fill-rule="evenodd" clip-rule="evenodd" d="M123.959 56.8825C121.476 56.8825 119.463 54.8798 119.463 52.4093C119.463 49.9389 121.476 47.9362 123.959 47.9362C126.442 47.9362 128.455 49.9389 128.455 52.4093C128.455 54.8798 126.442 56.8825 123.959 56.8825Z" fill="white"/>
<path fill-rule="evenodd" clip-rule="evenodd" d="M123.959 25.5703C121.476 25.5703 119.463 23.5676 119.463 21.0972C119.463 18.6267 121.476 16.624 123.959 16.624C126.442 16.624 128.455 18.6267 128.455 21.0972C128.455 23.5676 126.442 25.5703 123.959 25.5703Z" fill="white"/>
<path fill-rule="evenodd" clip-rule="evenodd" d="M94.4146 119.506C91.9316 119.506 89.9187 117.504 89.9187 115.033C89.9187 112.563 91.9316 110.56 94.4146 110.56C96.8977 110.56 98.9106 112.563 98.9106 115.033C98.9106 117.504 96.8977 119.506 94.4146 119.506Z" fill="white"/>
<path fill-rule="evenodd" clip-rule="evenodd" d="M94.4146 88.1945C91.9316 88.1945 89.9187 86.1918 89.9187 83.7213C89.9187 81.2509 91.9316 79.2482 94.4146 79.2482C96.8977 79.2482 98.9106 81.2509 98.9106 83.7213C98.9106 86.1918 96.8977 88.1945 94.4146 88.1945Z" fill="white"/>
<path fill-rule="evenodd" clip-rule="evenodd" d="M94.4146 56.8825C91.9316 56.8825 89.9187 54.8798 89.9187 52.4093C89.9187 49.9389 91.9316 47.9362 94.4146 47.9362C96.8977 47.9362 98.9106 49.9389 98.9106 52.4093C98.9106 54.8798 96.8977 56.8825 94.4146 56.8825Z" fill="white"/>
<path fill-rule="evenodd" clip-rule="evenodd" d="M94.4146 25.5703C91.9316 25.5703 89.9187 23.5676 89.9187 21.0972C89.9187 18.6267 91.9316 16.624 94.4146 16.624C96.8977 16.624 98.9106 18.6267 98.9106 21.0972C98.9106 23.5676 96.8977 25.5703 94.4146 25.5703Z" fill="white"/>
<path fill-rule="evenodd" clip-rule="evenodd" d="M63.5853 119.506C61.1023 119.506 59.0894 117.504 59.0894 115.033C59.0894 112.563 61.1023 110.56 63.5853 110.56C66.0683 110.56 68.0812 112.563 68.0812 115.033C68.0812 117.504 66.0683 119.506 63.5853 119.506Z" fill="white"/>
<path fill-rule="evenodd" clip-rule="evenodd" d="M63.5853 88.1945C61.1023 88.1945 59.0894 86.1918 59.0894 83.7213C59.0894 81.2509 61.1023 79.2482 63.5853 79.2482C66.0683 79.2482 68.0812 81.2509 68.0812 83.7213C68.0812 86.1918 66.0683 88.1945 63.5853 88.1945Z" fill="white"/>
<path fill-rule="evenodd" clip-rule="evenodd" d="M63.5853 56.8825C61.1023 56.8825 59.0894 54.8798 59.0894 52.4093C59.0894 49.9389 61.1023 47.9362 63.5853 47.9362C66.0683 47.9362 68.0812 49.9389 68.0812 52.4093C68.0812 54.8798 66.0683 56.8825 63.5853 56.8825Z" fill="white"/>
<path fill-rule="evenodd" clip-rule="evenodd" d="M63.5853 25.5703C61.1023 25.5703 59.0894 23.5676 59.0894 21.0972C59.0894 18.6267 61.1023 16.624 63.5853 16.624C66.0683 16.624 68.0812 18.6267 68.0812 21.0972C68.0812 23.5676 66.0683 25.5703 63.5853 25.5703Z" fill="white"/>
<path fill-rule="evenodd" clip-rule="evenodd" d="M34.0406 119.506C31.5576 119.506 29.5447 117.504 29.5447 115.033C29.5447 112.563 31.5576 110.56 34.0406 110.56C36.5236 110.56 38.5365 112.563 38.5365 115.033C38.5365 117.504 36.5236 119.506 34.0406 119.506Z" fill="white"/>
<path fill-rule="evenodd" clip-rule="evenodd" d="M34.0406 88.1945C31.5576 88.1945 29.5447 86.1918 29.5447 83.7213C29.5447 81.2509 31.5576 79.2482 34.0406 79.2482C36.5236 79.2482 38.5365 81.2509 38.5365 83.7213C38.5365 86.1918 36.5236 88.1945 34.0406 88.1945Z" fill="white"/>
<path fill-rule="evenodd" clip-rule="evenodd" d="M34.0406 56.8825C31.5576 56.8825 29.5447 54.8798 29.5447 52.4093C29.5447 49.9389 31.5576 47.9362 34.0406 47.9362C36.5236 47.9362 38.5365 49.9389 38.5365 52.4093C38.5365 54.8798 36.5236 56.8825 34.0406 56.8825Z" fill="white"/>
<path fill-rule="evenodd" clip-rule="evenodd" d="M34.0406 25.5703C31.5576 25.5703 29.5447 23.5676 29.5447 21.0972C29.5447 18.6267 31.5576 16.624 34.0406 16.624C36.5236 16.624 38.5365 18.6267 38.5365 21.0972C38.5365 23.5676 36.5236 25.5703 34.0406 25.5703Z" fill="white"/>
<path fill-rule="evenodd" clip-rule="evenodd" d="M4.49593 119.506C2.0129 119.506 0 117.504 0 115.033C0 112.563 2.0129 110.56 4.49593 110.56C6.97897 110.56 8.99187 112.563 8.99187 115.033C8.99187 117.504 6.97897 119.506 4.49593 119.506Z" fill="white"/>
<path fill-rule="evenodd" clip-rule="evenodd" d="M4.49593 88.1945C2.0129 88.1945 0 86.1918 0 83.7213C0 81.2509 2.0129 79.2482 4.49593 79.2482C6.97897 79.2482 8.99187 81.2509 8.99187 83.7213C8.99187 86.1918 6.97897 88.1945 4.49593 88.1945Z" fill="white"/>
<path fill-rule="evenodd" clip-rule="evenodd" d="M4.49593 56.8825C2.0129 56.8825 0 54.8798 0 52.4093C0 49.9389 2.0129 47.9362 4.49593 47.9362C6.97897 47.9362 8.99187 49.9389 8.99187 52.4093C8.99187 54.8798 6.97897 56.8825 4.49593 56.8825Z" fill="white"/>
<path fill-rule="evenodd" clip-rule="evenodd" d="M4.49593 25.5703C2.0129 25.5703 0 23.5676 0 21.0972C0 18.6267 2.0129 16.624 4.49593 16.624C6.97897 16.624 8.99187 18.6267 8.99187 21.0972C8.99187 23.5676 6.97897 25.5703 4.49593 25.5703Z" fill="white"/>
</svg>
