<svg width="103" height="103" viewBox="0 0 103 103" fill="none" xmlns="http://www.w3.org/2000/svg">
<path d="M2.05887 65.2465C9.80947 93.349 37.2549 107.87 64.1263 100.459C90.9978 93.048 109.532 62.2938 99.3688 38.4088C89.2058 14.5238 65.6454 -8.64934 37.3014 3.19592C8.95737 15.0412 -5.69172 37.1439 2.05887 65.2465Z" fill="#554488"/>
<path d="M53.0119 60.1551L52.5869 59.8151C52.4289 59.7079 52.2574 59.6221 52.0769 59.5601L51.5669 59.3334C51.1074 59.2374 50.6312 59.257 50.1812 59.3905C49.7311 59.524 49.3213 59.7673 48.9885 60.0984C48.7383 60.3738 48.537 60.6901 48.3935 61.0334C48.1791 61.5497 48.1222 62.1178 48.2299 62.6663C48.3377 63.2148 48.6053 63.7192 48.999 64.116C49.3928 64.5128 49.8951 64.7842 50.4428 64.8962C50.9905 65.0081 51.559 64.9556 52.0769 64.7451C52.4154 64.5808 52.73 64.3711 53.0119 64.1218C53.405 63.7233 53.6713 63.2174 53.7772 62.6677C53.8831 62.1181 53.8238 61.5494 53.6069 61.0334C53.4656 60.7058 53.2637 60.4078 53.0119 60.1551ZM62.3335 19.6667H39.6669C37.4125 19.6667 35.2505 20.5623 33.6565 22.1563C32.0624 23.7504 31.1669 25.9124 31.1669 28.1667V67.8334C31.1669 70.0878 32.0624 72.2498 33.6565 73.8438C35.2505 75.4379 37.4125 76.3334 39.6669 76.3334H62.3335C64.5879 76.3334 66.7499 75.4379 68.344 73.8438C69.938 72.2498 70.8335 70.0878 70.8335 67.8334V28.1667C70.8335 25.9124 69.938 23.7504 68.344 22.1563C66.7499 20.5623 64.5879 19.6667 62.3335 19.6667ZM65.1669 67.8334C65.1669 68.5849 64.8684 69.3055 64.337 69.8369C63.8057 70.3683 63.085 70.6668 62.3335 70.6668H39.6669C38.9154 70.6668 38.1948 70.3683 37.6634 69.8369C37.1321 69.3055 36.8335 68.5849 36.8335 67.8334V28.1667C36.8335 27.4153 37.1321 26.6946 37.6634 26.1633C38.1948 25.6319 38.9154 25.3334 39.6669 25.3334H62.3335C63.085 25.3334 63.8057 25.6319 64.337 26.1633C64.8684 26.6946 65.1669 27.4153 65.1669 28.1667V67.8334Z" fill="white"/>
</svg>
