<svg width="30" height="30" viewBox="0 0 30 30" fill="none" xmlns="http://www.w3.org/2000/svg">
<path d="M23.2409 16.7617L13.7579 26.2446C13.4266 26.576 13.2404 27.0254 13.2404 27.494C13.2404 27.9627 13.4266 28.4121 13.7579 28.7434C14.0893 29.0748 14.5387 29.261 15.0073 29.261C15.4759 29.261 15.9254 29.0748 16.2567 28.7434L28.7508 16.2494C28.9121 16.0842 29.0394 15.8889 29.1256 15.6747C29.3041 15.2426 29.3041 14.7574 29.1256 14.3253C29.0394 14.1111 28.9121 13.9158 28.7508 13.7506L16.2567 1.25655C15.9254 0.925189 15.4759 0.73903 15.0073 0.739031C14.5387 0.73903 14.0893 0.925189 13.7579 1.25655C13.4266 1.58791 13.2404 2.03734 13.2404 2.50595C13.2404 2.97457 13.4266 3.424 13.7579 3.75536L23.2409 13.2383L2.51328 13.2258C2.28003 13.2249 2.0489 13.2701 1.83321 13.3589C1.61753 13.4478 1.42157 13.5784 1.25664 13.7434C1.0917 13.9083 0.961054 14.1042 0.872231 14.3199C0.78341 14.5356 0.738177 14.7667 0.739133 15C0.738177 15.2333 0.78341 15.4644 0.872231 15.6801C0.961054 15.8958 1.0917 16.0917 1.25664 16.2566C1.42157 16.4216 1.61753 16.5522 1.83321 16.6411C2.0489 16.7299 2.28003 16.7751 2.51328 16.7742L23.2409 16.7617Z" fill="white"/>
</svg>
