<svg width="54" height="40" viewBox="0 0 54 40" fill="none" xmlns="http://www.w3.org/2000/svg">
<path fill-rule="evenodd" clip-rule="evenodd" d="M32.6981 1.0733C33.615 1.34741 34.1353 2.31031 33.8602 3.224L23.4602 37.7686C23.1852 38.6823 22.2189 39.2008 21.3019 38.9267C20.385 38.6526 19.8647 37.6897 20.1398 36.776L30.5398 2.23137C30.8148 1.31768 31.7811 0.799191 32.6981 1.0733ZM17.9045 6.77199C18.5348 7.48989 18.4618 8.58109 17.7414 9.20925L5.36556 20L17.7414 30.7907C18.4618 31.4189 18.5348 32.5101 17.9045 33.228C17.2741 33.9459 16.179 34.0187 15.4586 33.3905L1.59193 21.2999C1.21577 20.9719 1 20.4981 1 20C1 19.5019 1.21577 19.0281 1.59193 18.7001L15.4586 6.60951C16.179 5.98134 17.2741 6.05409 17.9045 6.77199ZM36.0955 6.77199C36.7259 6.05409 37.821 5.98134 38.5414 6.60951L52.4081 18.7001C52.7842 19.0281 53 19.5019 53 20C53 20.4981 52.7842 20.9719 52.4081 21.2999L38.5414 33.3905C37.821 34.0187 36.7259 33.9459 36.0955 33.228C35.4652 32.5101 35.5382 31.4189 36.2586 30.7907L48.6344 20L36.2586 9.20925C35.5382 8.58109 35.4652 7.48989 36.0955 6.77199Z" fill="white" stroke="white" stroke-linecap="round" stroke-linejoin="round"/>
</svg>
