<svg width="37" height="41" viewBox="0 0 37 41" fill="none" xmlns="http://www.w3.org/2000/svg">
<path d="M36 26C35.9956 24.7994 35.6311 23.6278 34.9536 22.6366C34.2762 21.6454 33.317 20.8802 32.2 20.44L35.94 6.44002C36.0181 6.14186 36.0263 5.82968 35.9638 5.52785C35.9014 5.22601 35.77 4.9427 35.58 4.70002C35.3857 4.47263 35.1429 4.2917 34.8695 4.17056C34.5961 4.04942 34.2989 3.99114 34 4.00002H6.6L5.94 1.48002C5.82525 1.05384 5.57275 0.677588 5.22185 0.409889C4.87095 0.142191 4.44135 -0.00191774 4 1.92748e-05H0V4.00002H2.46L7.42 22.52C7.5372 22.9563 7.79868 23.3401 8.16185 23.6089C8.52501 23.8776 8.96847 24.0155 9.42 24H30C30.5304 24 31.0391 24.2107 31.4142 24.5858C31.7893 24.9609 32 25.4696 32 26C32 26.5305 31.7893 27.0392 31.4142 27.4142C31.0391 27.7893 30.5304 28 30 28H4C3.46957 28 2.96086 28.2107 2.58579 28.5858C2.21071 28.9609 2 29.4696 2 30C2 30.5305 2.21071 31.0392 2.58579 31.4142C2.96086 31.7893 3.46957 32 4 32H6.36C6.03107 32.9063 5.92537 33.8785 6.05186 34.8342C6.17835 35.79 6.53329 36.7012 7.08664 37.4907C7.63998 38.2802 8.37543 38.9248 9.23071 39.3698C10.086 39.8147 11.0359 40.0471 12 40.0471C12.9641 40.0471 13.914 39.8147 14.7693 39.3698C15.6246 38.9248 16.36 38.2802 16.9134 37.4907C17.4667 36.7012 17.8217 35.79 17.9481 34.8342C18.0746 33.8785 17.9689 32.9063 17.64 32H22.36C22.0606 32.8252 21.9459 33.7061 22.024 34.5805C22.1021 35.4548 22.3711 36.3014 22.8121 37.0605C23.2531 37.8196 23.8552 38.4726 24.5761 38.9736C25.2969 39.4746 26.119 39.8113 26.9841 39.9599C27.8493 40.1086 28.7366 40.0656 29.5833 39.8339C30.4301 39.6023 31.2157 39.1877 31.8847 38.6194C32.5538 38.051 33.0899 37.3428 33.4554 36.5446C33.8209 35.7465 34.0068 34.8778 34 34C33.9963 32.9668 33.7204 31.9527 33.2 31.06C34.0552 30.5208 34.7603 29.7742 35.2499 28.8896C35.7394 28.005 35.9974 27.011 36 26ZM28.18 20H11L7.68 8.00002H31.4L28.18 20ZM12 36C11.6044 36 11.2178 35.8827 10.8889 35.663C10.56 35.4432 10.3036 35.1308 10.1522 34.7654C10.0009 34.3999 9.96126 33.9978 10.0384 33.6098C10.1156 33.2219 10.3061 32.8655 10.5858 32.5858C10.8655 32.3061 11.2219 32.1156 11.6098 32.0384C11.9978 31.9613 12.3999 32.0009 12.7654 32.1523C13.1308 32.3036 13.4432 32.56 13.6629 32.8889C13.8827 33.2178 14 33.6045 14 34C14 34.5305 13.7893 35.0392 13.4142 35.4142C13.0391 35.7893 12.5304 36 12 36ZM28 36C27.6044 36 27.2178 35.8827 26.8889 35.663C26.56 35.4432 26.3036 35.1308 26.1522 34.7654C26.0009 34.3999 25.9613 33.9978 26.0384 33.6098C26.1156 33.2219 26.3061 32.8655 26.5858 32.5858C26.8655 32.3061 27.2219 32.1156 27.6098 32.0384C27.9978 31.9613 28.3999 32.0009 28.7654 32.1523C29.1308 32.3036 29.4432 32.56 29.6629 32.8889C29.8827 33.2178 30 33.6045 30 34C30 34.5305 29.7893 35.0392 29.4142 35.4142C29.0391 35.7893 28.5304 36 28 36Z" fill="white"/>
</svg>
