<svg width="103" height="104" viewBox="0 0 103 104" fill="none" xmlns="http://www.w3.org/2000/svg">
<path d="M2.50711 65.8945C10.2577 93.9971 37.7031 108.518 64.5745 101.107C91.4458 93.6964 109.98 62.9418 99.817 39.0568C89.6542 15.1718 66.0936 -8.00137 37.7496 3.84392C9.40562 15.6892 -5.24346 37.7919 2.50711 65.8945Z" fill="#F45B0F"/>
<g clip-path="url(#clip0)">
<path d="M37.8615 44.277H36.1077C35.5554 44.277 35.1077 44.7247 35.1077 45.277V78.0001C35.1077 78.5524 35.5554 79.0001 36.1077 79.0001H37.8615C38.4138 79.0001 38.8615 78.5524 38.8615 78.0001V45.277C38.8615 44.7247 38.4138 44.277 37.8615 44.277Z" fill="white"/>
<path d="M45.3692 18H43.6154C43.0631 18 42.6154 18.4477 42.6154 19V78.0001C42.6154 78.5524 43.0631 79.0001 43.6154 79.0001H45.3692C45.9215 79.0001 46.3692 78.5524 46.3692 78.0001V19C46.3692 18.4477 45.9215 18 45.3692 18Z" fill="white"/>
<path d="M52.8768 35.8308H51.123C50.5707 35.8308 50.123 36.2785 50.123 36.8308V78.0001C50.123 78.5524 50.5707 79.0001 51.123 79.0001H52.8768C53.4291 79.0001 53.8768 78.5524 53.8768 78.0001V36.8308C53.8768 36.2785 53.4291 35.8308 52.8768 35.8308Z" fill="white"/>
<path d="M60.3845 26.4462H58.6307C58.0784 26.4462 57.6307 26.8939 57.6307 27.4462V78.0001C57.6307 78.5523 58.0784 79.0001 58.6307 79.0001H60.3845C60.9368 79.0001 61.3845 78.5523 61.3845 78.0001V27.4462C61.3845 26.8939 60.9368 26.4462 60.3845 26.4462Z" fill="white"/>
<path d="M67.8923 51.7847H66.1385C65.5862 51.7847 65.1385 52.2324 65.1385 52.7847V78.0001C65.1385 78.5524 65.5862 79.0001 66.1385 79.0001H67.8923C68.4446 79.0001 68.8923 78.5524 68.8923 78.0001V52.7847C68.8923 52.2324 68.4446 51.7847 67.8923 51.7847Z" fill="white"/>
</g>
<defs>
<clipPath id="clip0">
<rect width="34" height="61" fill="white" transform="translate(35 18)"/>
</clipPath>
</defs>
</svg>
