<svg width="103" height="104" viewBox="0 0 103 104" fill="none" xmlns="http://www.w3.org/2000/svg">
<path d="M2.50728 65.8945C10.2579 93.997 37.7033 108.518 64.5747 101.107C91.446 93.696 109.98 62.9418 99.817 39.0568C89.654 15.1718 66.0939 -8.00136 37.7499 3.8439C9.40578 15.6892 -5.24326 37.7919 2.50728 65.8945Z" fill="#0061FE"/>
<path d="M62 28H42C40.0109 28 38.1032 28.7902 36.6967 30.1967C35.2902 31.6032 34.5 33.5109 34.5 35.5V70.5C34.5 72.4891 35.2902 74.3968 36.6967 75.8033C38.1032 77.2098 40.0109 78 42 78H62C63.9891 78 65.8968 77.2098 67.3033 75.8033C68.7098 74.3968 69.5 72.4891 69.5 70.5V35.5C69.5 33.5109 68.7098 31.6032 67.3033 30.1967C65.8968 28.7902 63.9891 28 62 28ZM64.5 70.5C64.5 71.163 64.2366 71.7989 63.7678 72.2678C63.2989 72.7366 62.663 73 62 73H42C41.337 73 40.7011 72.7366 40.2322 72.2678C39.7634 71.7989 39.5 71.163 39.5 70.5V68H64.5V70.5ZM64.5 63H39.5V35.5C39.5 34.837 39.7634 34.2011 40.2322 33.7322C40.7011 33.2634 41.337 33 42 33H62C62.663 33 63.2989 33.2634 63.7678 33.7322C64.2366 34.2011 64.5 34.837 64.5 35.5V63Z" fill="white"/>
</svg>
