<svg width="58" height="58" viewBox="0 0 58 58" fill="none" xmlns="http://www.w3.org/2000/svg">
<path d="M55.6614 19.4799C55.6614 19.4799 55.6614 19.4799 55.6614 19.3383C53.665 13.8876 50.0427 9.18158 45.2843 5.85689C40.5259 2.5322 34.8612 0.749268 29.0564 0.749268C23.2516 0.749268 17.5869 2.5322 12.8285 5.85689C8.07015 9.18158 4.44777 13.8876 2.45141 19.3383C2.45141 19.3383 2.45141 19.3383 2.45141 19.4799C0.221926 25.6308 0.221926 32.3691 2.45141 38.5199C2.45141 38.5199 2.45141 38.5199 2.45141 38.6616C4.44777 44.1123 8.07015 48.8183 12.8285 52.143C17.5869 55.4677 23.2516 57.2506 29.0564 57.2506C34.8612 57.2506 40.5259 55.4677 45.2843 52.143C50.0427 48.8183 53.665 44.1123 55.6614 38.6616C55.6614 38.6616 55.6614 38.6616 55.6614 38.5199C57.8909 32.3691 57.8909 25.6308 55.6614 19.4799ZM7.06974 34.6666C6.08722 30.9527 6.08722 27.0472 7.06974 23.3333H12.3397C11.8865 27.0975 11.8865 30.9024 12.3397 34.6666H7.06974ZM9.39307 40.3333H13.3597C14.0248 42.8602 14.9753 45.3031 16.1931 47.6149C13.4144 45.7221 11.0916 43.2348 9.39307 40.3333ZM13.3597 17.6666H9.39307C11.0672 14.774 13.3603 12.2874 16.1081 10.3849C14.9196 12.7005 13.9976 15.1433 13.3597 17.6666ZM26.1664 50.8166C22.6864 48.2629 20.2423 44.5414 19.2814 40.3333H26.1664V50.8166ZM26.1664 34.6666H18.0631C17.5343 30.9073 17.5343 27.0926 18.0631 23.3333H26.1664V34.6666ZM26.1664 17.6666H19.2814C20.2423 13.4585 22.6864 9.73702 26.1664 7.18328V17.6666ZM48.6064 17.6666H44.6397C43.9747 15.1397 43.0241 12.6968 41.8064 10.3849C44.5851 12.2778 46.9078 14.7651 48.6064 17.6666ZM31.8331 7.18328C35.3131 9.73702 37.7571 13.4585 38.7181 17.6666H31.8331V7.18328ZM31.8331 50.8166V40.3333H38.7181C37.7571 44.5414 35.3131 48.2629 31.8331 50.8166ZM39.9364 34.6666H31.8331V23.3333H39.9364C40.4651 27.0926 40.4651 30.9073 39.9364 34.6666ZM41.8914 47.6149C43.1091 45.3031 44.0597 42.8602 44.7247 40.3333H48.6914C46.9928 43.2348 44.6701 45.7221 41.8914 47.6149ZM50.9297 34.6666H45.6597C45.8902 32.7866 46.0037 30.894 45.9997 28.9999C46.0028 27.1059 45.8893 25.2134 45.6597 23.3333H50.9297C51.9123 27.0472 51.9123 30.9527 50.9297 34.6666Z" fill="white"/>
</svg>
