<svg width="40" height="40" viewBox="0 0 40 40" fill="none" xmlns="http://www.w3.org/2000/svg">
<path d="M38.82 13.28C38.82 13.28 38.82 13.28 38.82 13.18C37.4108 9.33245 34.8538 6.01057 31.495 3.66373C28.1361 1.31689 24.1375 0.0583496 20.04 0.0583496C15.9425 0.0583496 11.9439 1.31689 8.58502 3.66373C5.22617 6.01057 2.6692 9.33245 1.26 13.18C1.26 13.18 1.26 13.18 1.26 13.28C-0.313749 17.6218 -0.313749 22.3782 1.26 26.72C1.26 26.72 1.26 26.72 1.26 26.82C2.6692 30.6676 5.22617 33.9894 8.58502 36.3363C11.9439 38.6831 15.9425 39.9417 20.04 39.9417C24.1375 39.9417 28.1361 38.6831 31.495 36.3363C34.8538 33.9894 37.4108 30.6676 38.82 26.82C38.82 26.82 38.82 26.82 38.82 26.72C40.3937 22.3782 40.3937 17.6218 38.82 13.28ZM4.52 24C3.82646 21.3784 3.82646 18.6216 4.52 16H8.24C7.92006 18.6571 7.92006 21.3429 8.24 24H4.52ZM6.16 28H8.96C9.42944 29.7837 10.1004 31.5081 10.96 33.14C8.9986 31.8039 7.35899 30.0481 6.16 28ZM8.96 12H6.16C7.34174 9.95818 8.96038 8.20294 10.9 6.86001C10.0611 8.49449 9.41028 10.2188 8.96 12ZM18 35.4C15.5435 33.5974 13.8183 30.9705 13.14 28H18V35.4ZM18 24H12.28C11.9068 21.3464 11.9068 18.6536 12.28 16H18V24ZM18 12H13.14C13.8183 9.02954 15.5435 6.40264 18 4.60001V12ZM33.84 12H31.04C30.5706 10.2163 29.8996 8.49188 29.04 6.86001C31.0014 8.19615 32.641 9.95189 33.84 12ZM22 4.60001C24.4565 6.40264 26.1817 9.02954 26.86 12H22V4.60001ZM22 35.4V28H26.86C26.1817 30.9705 24.4565 33.5974 22 35.4ZM27.72 24H22V16H27.72C28.0932 18.6536 28.0932 21.3464 27.72 24ZM29.1 33.14C29.9596 31.5081 30.6306 29.7837 31.1 28H33.9C32.701 30.0481 31.0614 31.8039 29.1 33.14ZM35.48 24H31.76C31.9227 22.6729 32.0028 21.337 32 20C32.0022 18.663 31.922 17.3271 31.76 16H35.48C36.1735 18.6216 36.1735 21.3784 35.48 24Z" fill="white"/>
</svg>
