<svg width="103" height="104" viewBox="0 0 103 104" fill="none" xmlns="http://www.w3.org/2000/svg">
<path d="M2.50679 65.8945C10.2574 93.997 37.7028 108.518 64.5742 101.107C91.446 93.696 109.979 62.9418 99.817 39.0568C89.654 15.1718 66.0934 -8.00136 37.7494 3.8439C9.40528 15.6892 -5.24374 37.7919 2.50679 65.8945Z" fill="#AABA0A"/>
<path d="M78.6614 42.4799C78.6614 42.4799 78.6614 42.4799 78.6614 42.3383C76.665 36.8876 73.0427 32.1816 68.2843 28.8569C63.5259 25.5322 57.8612 23.7493 52.0564 23.7493C46.2516 23.7493 40.5869 25.5322 35.8285 28.8569C31.0701 32.1816 27.4478 36.8876 25.4514 42.3383C25.4514 42.3383 25.4514 42.3383 25.4514 42.4799C23.2219 48.6308 23.2219 55.3691 25.4514 61.5199C25.4514 61.5199 25.4514 61.5199 25.4514 61.6616C27.4478 67.1123 31.0701 71.8183 35.8285 75.143C40.5869 78.4677 46.2516 80.2506 52.0564 80.2506C57.8612 80.2506 63.5259 78.4677 68.2843 75.143C73.0427 71.8183 76.665 67.1123 78.6614 61.6616C78.6614 61.6616 78.6614 61.6616 78.6614 61.5199C80.8909 55.3691 80.8909 48.6308 78.6614 42.4799ZM30.0697 57.6666C29.0872 53.9527 29.0872 50.0472 30.0697 46.3333H35.3397C34.8865 50.0975 34.8865 53.9024 35.3397 57.6666H30.0697ZM32.3931 63.3333H36.3597C37.0248 65.8602 37.9753 68.3031 39.1931 70.6149C36.4144 68.7221 34.0916 66.2348 32.3931 63.3333ZM36.3597 40.6666H32.3931C34.0672 37.774 36.3603 35.2874 39.1081 33.3849C37.9196 35.7005 36.9976 38.1433 36.3597 40.6666ZM49.1664 73.8166C45.6864 71.2629 43.2423 67.5414 42.2814 63.3333H49.1664V73.8166ZM49.1664 57.6666H41.0631C40.5343 53.9073 40.5343 50.0926 41.0631 46.3333H49.1664V57.6666ZM49.1664 40.6666H42.2814C43.2423 36.4585 45.6864 32.737 49.1664 30.1833V40.6666ZM71.6064 40.6666H67.6397C66.9747 38.1397 66.0241 35.6968 64.8064 33.3849C67.5851 35.2778 69.9078 37.7651 71.6064 40.6666ZM54.8331 30.1833C58.3131 32.737 60.7571 36.4585 61.7181 40.6666H54.8331V30.1833ZM54.8331 73.8166V63.3333H61.7181C60.7571 67.5414 58.3131 71.2629 54.8331 73.8166ZM62.9364 57.6666H54.8331V46.3333H62.9364C63.4651 50.0926 63.4651 53.9073 62.9364 57.6666ZM64.8914 70.6149C66.1091 68.3031 67.0597 65.8602 67.7247 63.3333H71.6914C69.9928 66.2348 67.6701 68.7221 64.8914 70.6149ZM73.9297 57.6666H68.6597C68.8902 55.7866 69.0037 53.894 68.9997 51.9999C69.0028 50.1059 68.8893 48.2134 68.6597 46.3333H73.9297C74.9123 50.0472 74.9123 53.9527 73.9297 57.6666Z" fill="white"/>
</svg>
