<svg width="1275" height="964" viewBox="0 0 1275 964" fill="none" xmlns="http://www.w3.org/2000/svg">
<g opacity="0.4">
<path fill-rule="evenodd" clip-rule="evenodd" d="M1241.38 384.438C1241.38 369.198 1229.04 356.844 1213.8 356.844C1198.56 356.844 1186.21 369.198 1186.21 384.438C1186.21 399.678 1198.56 412.033 1213.8 412.033C1229.04 412.033 1241.38 399.678 1241.38 384.438ZM1213.8 323.73C1247.32 323.73 1274.49 350.91 1274.49 384.438C1274.49 417.967 1247.32 445.147 1213.8 445.147C1180.27 445.147 1153.11 417.967 1153.11 384.438C1153.11 350.91 1180.27 323.73 1213.8 323.73Z" fill="#FD6234"/>
<path fill-rule="evenodd" clip-rule="evenodd" d="M1212.62 400.737C1203.49 400.737 1196.09 393.334 1196.09 384.202C1196.09 375.07 1203.49 367.667 1212.62 367.667C1221.74 367.667 1229.15 375.07 1229.15 384.202C1229.15 393.334 1221.74 400.737 1212.62 400.737Z" fill="#463C74"/>
<path fill-rule="evenodd" clip-rule="evenodd" d="M199.06 946.875C199.06 937.743 206.461 930.34 215.591 930.34H314.774C323.903 930.34 331.304 937.743 331.304 946.875C331.304 956.007 323.903 963.411 314.774 963.411H215.591C206.461 963.411 199.06 956.007 199.06 946.875Z" fill="#FFC735"/>
<path fill-rule="evenodd" clip-rule="evenodd" d="M364.365 534.201C364.365 567.73 337.229 594.909 303.753 594.909H193.55C160.074 594.909 132.938 567.73 132.938 534.201C132.938 500.672 160.074 473.493 193.55 473.493H303.753C337.229 473.493 364.365 500.672 364.365 534.201ZM303.753 561.796C318.969 561.796 331.304 549.441 331.304 534.201C331.304 518.961 318.969 506.606 303.753 506.606H193.55C178.334 506.606 165.999 518.961 165.999 534.201C165.999 549.441 178.334 561.796 193.55 561.796H303.753Z" fill="#B4D51E"/>
<path fill-rule="evenodd" clip-rule="evenodd" d="M70.5942 876.01C70.5942 885.142 77.9973 892.545 87.1296 892.545H138.389C155.762 892.545 171.429 885.237 182.484 873.528C193.538 885.237 209.205 892.545 226.578 892.545H277.286C310.772 892.545 337.916 865.401 337.916 831.915C337.916 822.784 330.513 815.38 321.381 815.38C312.249 815.38 304.845 822.784 304.845 831.915C304.845 847.136 292.507 859.474 277.286 859.474H226.578C211.358 859.474 199.019 847.136 199.019 831.915V720.578C199.019 687.702 172.367 661.051 139.492 661.051V694.121C154.103 694.121 165.948 705.966 165.948 720.578V831.915C165.948 847.136 153.61 859.474 138.389 859.474H87.1296C77.9973 859.474 70.5942 866.878 70.5942 876.01Z" fill="#B4D51E"/>
<path d="M285.255 742.739C300.49 742.739 312.841 730.385 312.841 715.145C312.841 699.905 300.49 687.55 285.255 687.55C270.019 687.55 257.668 699.905 257.668 715.145C257.668 724.288 250.257 731.701 241.116 731.701C231.975 731.701 224.564 724.288 224.564 715.145C224.564 681.616 251.736 654.436 285.255 654.436C318.773 654.436 345.945 681.616 345.945 715.145C345.945 748.673 318.773 775.853 285.255 775.853C276.113 775.853 268.703 768.44 268.703 759.296C268.703 750.152 276.113 742.739 285.255 742.739Z" fill="#E5E0D5"/>
<path d="M246.339 517.902C266.687 517.902 283.047 501.542 283.047 481.524C283.047 461.507 266.687 445.147 246.339 445.147C235.098 445.147 225.068 450.131 218.319 458.022C212.378 464.969 201.918 465.795 194.957 459.866C187.994 453.938 187.167 443.501 193.108 436.555C205.906 421.591 225.022 412.076 246.339 412.076C284.844 412.076 316.19 443.095 316.19 481.524C316.19 519.953 284.844 550.973 246.339 550.973C237.187 550.973 229.768 543.569 229.768 534.437C229.768 525.305 237.187 517.902 246.339 517.902Z" fill="#E5E0D5"/>
<path fill-rule="evenodd" clip-rule="evenodd" d="M509.267 92.3952C520.041 81.6483 520.041 64.2239 509.267 53.477C498.494 42.73 481.027 42.73 470.254 53.477C459.481 64.2239 459.481 81.6483 470.254 92.3952C476.718 98.8433 476.718 109.298 470.254 115.746C463.79 122.194 453.309 122.194 446.846 115.746C423.145 92.1028 423.145 53.7695 446.846 30.1261C470.547 6.48281 508.974 6.4828 532.675 30.1261C556.377 53.7695 556.377 92.1028 532.675 115.746C526.211 122.194 515.732 122.194 509.267 115.746C502.803 109.298 502.803 98.8433 509.267 92.3952Z" fill="#463C74"/>
<path fill-rule="evenodd" clip-rule="evenodd" d="M447.608 92.8267C454.064 86.3693 464.53 86.3693 470.986 92.8267C477.442 99.2842 477.442 109.754 470.986 116.211C464.53 122.669 454.064 122.669 447.608 116.211C441.153 109.754 441.153 99.2842 447.608 92.8267Z" fill="#FD6234"/>
<path fill-rule="evenodd" clip-rule="evenodd" d="M139.55 694.121C130.421 694.121 123.02 686.718 123.02 677.586C123.02 668.454 130.421 661.051 139.55 661.051C148.679 661.051 156.081 668.454 156.081 677.586C156.081 686.718 148.679 694.121 139.55 694.121Z" fill="#FD6234"/>
<g filter="url(#filter0_f)">
<path fill-rule="evenodd" clip-rule="evenodd" d="M92.2772 747.27C92.2772 732.03 79.9262 719.676 64.6906 719.676C49.4549 719.676 37.104 732.03 37.104 747.27C37.104 762.51 49.4549 774.865 64.6906 774.865C79.9262 774.865 92.2772 762.51 92.2772 747.27ZM64.6906 686.562C98.2091 686.562 125.381 713.742 125.381 747.27C125.381 780.799 98.2091 807.979 64.6906 807.979C31.172 807.979 4 780.799 4 747.27C4 713.742 31.172 686.562 64.6906 686.562Z" fill="#FFC735"/>
</g>
<path d="M115.463 604.866C96.6396 604.866 81.3801 620.182 81.3801 639.075V703.08C81.3801 712.221 73.9965 719.633 64.8883 719.633C55.7801 719.633 48.3965 712.221 48.3965 703.08V639.075C48.3965 601.898 78.4232 571.76 115.463 571.76V604.866Z" fill="#E5E0D5"/>
<path fill-rule="evenodd" clip-rule="evenodd" d="M64.927 719.633C55.7974 719.633 48.3965 712.229 48.3965 703.098C48.3965 693.966 55.7974 686.562 64.927 686.562C74.0566 686.562 81.4575 693.966 81.4575 703.098C81.4575 712.229 74.0566 719.633 64.927 719.633Z" fill="#FD6234"/>
<path fill-rule="evenodd" clip-rule="evenodd" d="M64.4543 763.569C55.3248 763.569 47.9238 756.166 47.9238 747.034C47.9238 737.902 55.3248 730.499 64.4543 730.499C73.5839 730.499 80.9848 737.902 80.9848 747.034C80.9848 756.166 73.5839 763.569 64.4543 763.569Z" fill="#FD6234"/>
<g filter="url(#filter1_f)">
<path fill-rule="evenodd" clip-rule="evenodd" d="M67.7953 433.294C83.0519 433.095 95.2589 420.581 95.0605 405.342C94.862 390.102 82.3333 377.909 67.0768 378.107C57.9228 378.226 50.4056 370.91 50.2866 361.766C50.1675 352.623 57.4916 345.114 66.6456 344.995C100.21 344.559 127.773 371.384 128.209 404.911C128.646 438.437 101.791 465.969 68.2265 466.405C59.0726 466.524 51.5553 459.208 51.4362 450.064C51.3172 440.921 58.6414 433.412 67.7953 433.294Z" fill="#FFC735"/>
</g>
<path fill-rule="evenodd" clip-rule="evenodd" d="M148.321 551.942C133.077 551.942 120.72 564.289 120.72 579.521C120.72 594.752 133.077 607.1 148.321 607.1C208.688 607.1 257.625 655.997 257.625 716.313C257.625 725.452 250.21 732.861 241.064 732.861C231.918 732.861 224.503 725.452 224.503 716.313C224.503 674.274 190.396 640.195 148.321 640.195C114.784 640.195 87.5972 613.031 87.5972 579.521C87.5972 546.011 114.784 518.847 148.321 518.847C157.468 518.847 164.883 526.256 164.883 535.394C164.883 544.533 157.468 551.942 148.321 551.942Z" fill="#FFC735"/>
<g filter="url(#filter2_f)">
<path fill-rule="evenodd" clip-rule="evenodd" d="M393.132 832.107C393.132 816.918 380.781 804.604 365.546 804.604C350.31 804.604 337.959 816.918 337.959 832.107C337.959 841.22 330.548 848.608 321.407 848.608C312.266 848.608 304.855 841.22 304.855 832.107C304.855 798.69 332.027 771.601 365.546 771.601C399.064 771.601 426.236 798.69 426.236 832.107C426.236 841.22 418.825 848.608 409.684 848.608C400.543 848.608 393.132 841.22 393.132 832.107Z" fill="#463C74"/>
</g>
<path d="M364.365 537.744C364.365 579.753 398.409 613.807 440.405 613.807C449.534 613.807 456.936 621.21 456.936 630.342C456.936 639.474 449.534 646.877 440.405 646.877C380.15 646.877 331.304 598.017 331.304 537.744C331.304 528.612 338.705 521.209 347.834 521.209C356.963 521.209 364.365 528.612 364.365 537.744Z" fill="#E5E0D5"/>
<g filter="url(#filter3_f)">
<path fill-rule="evenodd" clip-rule="evenodd" d="M701.082 43.1672C640.099 43.1672 590.662 92.6186 590.662 153.62C590.662 162.77 583.246 170.188 574.099 170.188C564.951 170.188 557.536 162.77 557.536 153.62C557.536 74.3182 621.804 10.0314 701.082 10.0314C710.23 10.0314 717.645 17.4491 717.645 26.5993C717.645 35.7496 710.23 43.1672 701.082 43.1672Z" fill="#FFC735"/>
</g>
<path fill-rule="evenodd" clip-rule="evenodd" d="M858.829 145.131C858.829 89.0621 813.389 43.609 757.336 43.609C748.197 43.609 740.788 36.1982 740.788 27.0564C740.788 17.9147 748.197 10.5039 757.336 10.5039C831.667 10.5039 891.924 70.7787 891.924 145.131C891.924 154.273 884.515 161.684 875.376 161.684C866.238 161.684 858.829 154.273 858.829 145.131Z" fill="#B4D51E"/>
<path fill-rule="evenodd" clip-rule="evenodd" d="M342.639 459.32C342.639 415.484 307.115 379.95 263.293 379.95C254.163 379.95 246.762 372.547 246.762 363.415C246.762 354.283 254.163 346.879 263.293 346.879C325.374 346.879 375.7 397.221 375.7 459.32C375.7 468.452 368.299 475.855 359.17 475.855C350.04 475.855 342.639 468.452 342.639 459.32Z" fill="#FFC735"/>
<path fill-rule="evenodd" clip-rule="evenodd" d="M51.2314 450.086C51.1127 440.954 58.4168 433.455 67.5455 433.337C76.6743 433.218 84.1709 440.524 84.2896 449.655C84.4082 458.787 77.1042 466.286 67.9754 466.405C58.8468 466.524 51.3502 459.217 51.2314 450.086Z" fill="#FD6234"/>
<path fill-rule="evenodd" clip-rule="evenodd" d="M241.094 732.861C231.965 732.861 224.564 725.458 224.564 716.326C224.564 707.194 231.965 699.79 241.094 699.79C250.224 699.79 257.625 707.194 257.625 716.326C257.625 725.458 250.224 732.861 241.094 732.861Z" fill="#FD6234"/>
<path fill-rule="evenodd" clip-rule="evenodd" d="M321.385 848.608C312.256 848.608 304.855 841.205 304.855 832.073C304.855 822.941 312.256 815.538 321.385 815.538C330.515 815.538 337.916 822.941 337.916 832.073C337.916 841.205 330.515 848.608 321.385 848.608Z" fill="#FD6234"/>
<path fill-rule="evenodd" clip-rule="evenodd" d="M86.6526 892.545C77.523 892.545 70.1221 885.142 70.1221 876.01C70.1221 866.878 77.523 859.474 86.6526 859.474C95.7821 859.474 103.183 866.878 103.183 876.01C103.183 885.142 95.7821 892.545 86.6526 892.545Z" fill="#FD6234"/>
<path fill-rule="evenodd" clip-rule="evenodd" d="M241.094 776.798C231.965 776.798 224.564 769.394 224.564 760.262C224.564 751.13 231.965 743.727 241.094 743.727C250.224 743.727 257.625 751.13 257.625 760.262C257.625 769.394 250.224 776.798 241.094 776.798Z" fill="#463C74"/>
<path fill-rule="evenodd" clip-rule="evenodd" d="M241.094 821.207C231.965 821.207 224.564 813.803 224.564 804.672C224.564 795.54 231.965 788.136 241.094 788.136C250.224 788.136 257.625 795.54 257.625 804.672C257.625 813.803 250.224 821.207 241.094 821.207Z" fill="#463C74"/>
<path fill-rule="evenodd" clip-rule="evenodd" d="M365.782 854.277C356.653 854.277 349.251 846.874 349.251 837.742C349.251 828.61 356.653 821.207 365.782 821.207C374.911 821.207 382.312 828.61 382.312 837.742C382.312 846.874 374.911 854.277 365.782 854.277Z" fill="#FD6234"/>
<path fill-rule="evenodd" clip-rule="evenodd" d="M365.782 898.214C356.653 898.214 349.251 890.811 349.251 881.679C349.251 872.547 356.653 865.144 365.782 865.144C374.911 865.144 382.312 872.547 382.312 881.679C382.312 890.811 374.911 898.214 365.782 898.214Z" fill="#FD6234"/>
<path fill-rule="evenodd" clip-rule="evenodd" d="M347.834 554.28C338.705 554.28 331.304 546.876 331.304 537.744C331.304 528.612 338.705 521.209 347.834 521.209C356.963 521.209 364.365 528.612 364.365 537.744C364.365 546.876 356.963 554.28 347.834 554.28Z" fill="#FD6234"/>
<path fill-rule="evenodd" clip-rule="evenodd" d="M149.468 551.917C140.339 551.917 132.938 544.514 132.938 535.382C132.938 526.25 140.339 518.847 149.468 518.847C158.598 518.847 165.999 526.25 165.999 535.382C165.999 544.514 158.598 551.917 149.468 551.917Z" fill="#FD6234"/>
<path fill-rule="evenodd" clip-rule="evenodd" d="M467.284 532.311C467.284 517.071 454.932 504.717 439.697 504.717C424.46 504.717 412.11 517.071 412.11 532.311C412.11 547.551 424.46 559.906 439.697 559.906C454.932 559.906 467.284 547.551 467.284 532.311ZM439.697 471.603C473.215 471.603 500.387 498.783 500.387 532.311C500.387 565.84 473.215 593.019 439.697 593.019C406.178 593.019 379.006 565.84 379.006 532.311C379.006 498.783 406.178 471.603 439.697 471.603Z" fill="#FFC735"/>
<path fill-rule="evenodd" clip-rule="evenodd" d="M513.612 201.369C513.612 210.501 521.023 217.904 530.166 217.904C545.404 217.904 557.757 230.243 557.757 245.463V355.698C557.757 370.919 545.404 383.257 530.166 383.257C521.023 383.257 513.612 390.661 513.612 399.792C513.612 408.924 521.023 416.328 530.166 416.328C547.56 416.328 563.245 409.02 574.312 397.311C585.378 409.02 601.064 416.328 618.458 416.328H669.225C702.749 416.328 729.925 389.183 729.925 355.698C729.925 346.566 722.513 339.163 713.371 339.163C704.228 339.163 696.816 346.566 696.816 355.698C696.816 370.919 684.463 383.257 669.225 383.257H618.458C603.22 383.257 590.867 370.919 590.867 355.698V245.463C590.867 211.978 563.689 184.833 530.166 184.833C521.023 184.833 513.612 192.237 513.612 201.369Z" fill="#B4D51E"/>
<path d="M546.673 399.898C546.673 390.762 539.262 383.355 530.121 383.355C514.886 383.355 502.535 371.01 502.535 355.782V245.493C502.535 230.265 514.886 217.92 530.121 217.92C539.262 217.92 546.673 210.513 546.673 201.377C546.673 192.24 539.262 184.833 530.121 184.833C496.603 184.833 469.433 211.991 469.433 245.493V355.782C469.433 357.14 469.477 358.487 469.565 359.821C442.018 368.251 421.985 393.868 421.985 424.162V488.13C421.985 497.267 429.396 504.674 438.537 504.674C447.678 504.674 455.088 497.267 455.088 488.13V424.162C455.088 408.233 465.988 394.847 480.738 391.051C491.748 406.423 509.764 416.442 530.121 416.442C539.262 416.442 546.673 409.035 546.673 399.898Z" fill="#E5E0D5"/>
<path fill-rule="evenodd" clip-rule="evenodd" d="M529.906 416.371C514.67 416.371 502.32 428.725 502.32 443.965C502.32 459.205 514.67 471.56 529.906 471.56C545.142 471.56 557.493 459.205 557.493 443.965C557.493 434.822 564.903 427.409 574.045 427.409C583.186 427.409 590.597 434.822 590.597 443.965C590.597 477.494 563.424 504.674 529.906 504.674C496.388 504.674 469.216 477.494 469.216 443.965C469.216 410.437 496.388 383.257 529.906 383.257C539.047 383.257 546.458 390.67 546.458 399.814C546.458 408.958 539.047 416.371 529.906 416.371Z" fill="#463C74"/>
<path d="M928.334 527.587C928.334 512.347 940.685 499.992 955.921 499.992C971.157 499.992 983.508 512.347 983.508 527.587C983.508 542.827 971.157 555.182 955.921 555.182C946.78 555.182 939.369 562.595 939.369 571.738C939.369 580.882 946.78 588.295 955.921 588.295C989.44 588.295 1016.61 561.116 1016.61 527.587C1016.61 494.058 989.44 466.879 955.921 466.879C922.402 466.879 895.23 494.058 895.23 527.587C895.23 536.731 902.641 544.144 911.782 544.144C920.924 544.144 928.334 536.731 928.334 527.587Z" fill="#E5E0D5"/>
<path fill-rule="evenodd" clip-rule="evenodd" d="M530.142 416.328C521.012 416.328 513.612 408.924 513.612 399.793C513.612 390.661 521.012 383.257 530.142 383.257C539.272 383.257 546.673 390.661 546.673 399.793C546.673 408.924 539.272 416.328 530.142 416.328Z" fill="#FD6234"/>
<path fill-rule="evenodd" clip-rule="evenodd" d="M530.142 217.904C521.012 217.904 513.612 210.501 513.612 201.369C513.612 192.237 521.012 184.833 530.142 184.833C539.272 184.833 546.673 192.237 546.673 201.369C546.673 210.501 539.272 217.904 530.142 217.904Z" fill="#FD6234"/>
<path fill-rule="evenodd" clip-rule="evenodd" d="M438.516 504.674C429.387 504.674 421.985 497.27 421.985 488.138C421.985 479.006 429.387 471.603 438.516 471.603C447.645 471.603 455.046 479.006 455.046 488.138C455.046 497.27 447.645 504.674 438.516 504.674Z" fill="#FD6234"/>
<path fill-rule="evenodd" clip-rule="evenodd" d="M439.461 548.61C430.331 548.61 422.93 541.207 422.93 532.075C422.93 522.943 430.331 515.54 439.461 515.54C448.59 515.54 455.991 522.943 455.991 532.075C455.991 541.207 448.59 548.61 439.461 548.61Z" fill="#463C74"/>
<path fill-rule="evenodd" clip-rule="evenodd" d="M1133.6 385.422C1133.6 418.929 1106.43 446.091 1072.9 446.091H962.542C929.018 446.091 901.842 418.929 901.842 385.422C901.842 351.914 929.018 324.752 962.542 324.752H997.858V290.005C997.858 256.498 1025.03 229.335 1058.56 229.335H1168.92C1184.16 229.335 1196.51 216.988 1196.51 201.758V151.016C1196.51 135.785 1184.16 123.438 1168.92 123.438C1159.78 123.438 1152.36 116.03 1152.36 106.892C1152.36 97.7539 1159.78 90.3459 1168.92 90.3459C1202.45 90.3459 1229.62 117.508 1229.62 151.016V201.758C1229.62 219.142 1222.3 234.82 1210.58 245.881C1222.3 256.943 1229.62 272.62 1229.62 290.005V339.644C1229.62 348.781 1222.2 356.19 1213.06 356.19C1203.93 356.19 1196.51 348.781 1196.51 339.644V290.005C1196.51 274.774 1184.16 262.427 1168.92 262.427H1058.56C1043.32 262.427 1030.97 274.774 1030.97 290.005V324.752H1072.9C1106.43 324.752 1133.6 351.914 1133.6 385.422ZM962.542 357.844C947.304 357.844 934.951 370.191 934.951 385.422C934.951 400.652 947.304 412.999 962.542 412.999H1072.9C1088.14 412.999 1100.49 400.652 1100.49 385.422C1100.49 370.191 1088.14 357.844 1072.9 357.844H962.542Z" fill="#B4D51E"/>
<path fill-rule="evenodd" clip-rule="evenodd" d="M885.856 226.527C904.682 234.183 926.003 225.201 933.568 206.678C941.133 188.154 932.178 166.858 913.352 159.201C902.95 154.971 891.785 155.809 882.559 160.571C874.436 164.764 864.446 161.592 860.245 153.486C856.044 145.381 859.223 135.412 867.345 131.22C884.841 122.189 906.125 120.577 925.849 128.599C961.476 143.088 978.757 183.589 964.234 219.15C949.711 254.711 908.984 271.618 873.357 257.13C864.89 253.685 860.822 244.042 864.274 235.592C867.724 227.141 877.387 223.083 885.856 226.527Z" fill="#FFC735"/>
<path fill-rule="evenodd" clip-rule="evenodd" d="M1133.27 388.926C1133.27 430.935 1167.31 464.989 1209.31 464.989C1218.43 464.989 1225.84 472.392 1225.84 481.524C1225.84 490.656 1218.43 498.06 1209.31 498.06C1149.05 498.06 1100.21 449.199 1100.21 388.926C1100.21 379.795 1107.61 372.391 1116.74 372.391C1125.86 372.391 1133.27 379.795 1133.27 388.926Z" fill="#FFC735"/>
<path fill-rule="evenodd" clip-rule="evenodd" d="M1116.74 404.517C1107.61 404.517 1100.21 397.113 1100.21 387.982C1100.21 378.85 1107.61 371.446 1116.74 371.446C1125.86 371.446 1133.27 378.85 1133.27 387.982C1133.27 397.113 1125.86 404.517 1116.74 404.517Z" fill="#FD6234"/>
<path fill-rule="evenodd" clip-rule="evenodd" d="M513.569 322.346C513.569 307.157 501.218 294.844 485.982 294.844C470.745 294.844 458.395 307.157 458.395 322.346C458.395 331.46 450.985 338.848 441.843 338.848C432.701 338.848 425.292 331.46 425.292 322.346C425.292 288.93 452.463 261.841 485.982 261.841C519.5 261.841 546.673 288.93 546.673 322.346C546.673 331.46 539.262 338.848 530.121 338.848C520.978 338.848 513.569 331.46 513.569 322.346Z" fill="#FFC735"/>
<path fill-rule="evenodd" clip-rule="evenodd" d="M785.141 356.834C785.141 341.645 772.79 329.332 757.555 329.332C742.319 329.332 729.968 341.645 729.968 356.834C729.968 365.948 722.557 373.336 713.416 373.336C704.275 373.336 696.864 365.948 696.864 356.834C696.864 323.418 724.036 296.329 757.555 296.329C791.074 296.329 818.245 323.418 818.245 356.834C818.245 365.948 810.835 373.336 801.693 373.336C792.552 373.336 785.141 365.948 785.141 356.834Z" fill="#463C74"/>
<path d="M369.088 929.395C411.084 929.395 445.128 895.341 445.128 853.333C445.128 844.201 452.53 836.797 461.659 836.797C470.788 836.797 478.189 844.201 478.189 853.333C478.189 913.605 429.343 962.466 369.088 962.466C359.959 962.466 352.558 955.062 352.558 945.93C352.558 936.798 359.959 929.395 369.088 929.395Z" fill="#E5E0D5"/>
<path fill-rule="evenodd" clip-rule="evenodd" d="M536.774 538.651C585.52 538.651 625.037 499.123 625.037 450.362C625.037 441.22 632.447 433.808 641.586 433.808C650.726 433.808 658.136 441.22 658.136 450.362C658.136 517.408 603.8 571.76 536.774 571.76C527.634 571.76 520.224 564.348 520.224 555.206C520.224 546.063 527.634 538.651 536.774 538.651Z" fill="#B4D51E"/>
<path fill-rule="evenodd" clip-rule="evenodd" d="M530.142 338.848C521.012 338.848 513.612 331.445 513.612 322.313C513.612 313.181 521.012 305.777 530.142 305.777C539.272 305.777 546.673 313.181 546.673 322.313C546.673 331.445 539.272 338.848 530.142 338.848Z" fill="#FD6234"/>
<path fill-rule="evenodd" clip-rule="evenodd" d="M645.856 234.439C636.726 234.439 629.325 227.036 629.325 217.904C629.325 208.772 636.726 201.369 645.856 201.369C654.985 201.369 662.386 208.772 662.386 217.904C662.386 227.036 654.985 234.439 645.856 234.439Z" fill="#FD6234"/>
<path fill-rule="evenodd" clip-rule="evenodd" d="M897.119 572.705C897.119 581.837 904.52 589.24 913.65 589.24C922.779 589.24 930.18 581.837 930.18 572.705C930.18 563.573 922.779 556.169 913.65 556.169C904.52 556.169 897.119 563.573 897.119 572.705Z" fill="#FD6234"/>
<path fill-rule="evenodd" clip-rule="evenodd" d="M853.195 572.705C853.195 581.837 860.597 589.24 869.726 589.24C878.855 589.24 886.256 581.837 886.256 572.705C886.256 563.573 878.855 556.169 869.726 556.169C860.597 556.169 853.195 563.573 853.195 572.705Z" fill="#FD6234"/>
<g style="mix-blend-mode:multiply">
<path fill-rule="evenodd" clip-rule="evenodd" d="M1177.43 962.466C1143.91 962.466 1116.74 935.321 1116.74 901.836V791.601C1116.74 758.116 1143.91 730.971 1177.43 730.971C1210.95 730.971 1238.12 758.116 1238.12 791.601V901.836C1238.12 935.321 1210.95 962.466 1177.43 962.466ZM1205.02 901.836V791.601C1205.02 776.38 1192.67 764.042 1177.43 764.042C1162.19 764.042 1149.84 776.38 1149.84 791.601V901.836C1149.84 917.056 1162.19 929.395 1177.43 929.395C1192.67 929.395 1205.02 917.056 1205.02 901.836Z" fill="#B4D51E"/>
</g>
<path d="M1194.29 747.53C1194.29 714.093 1221.5 686.987 1255.08 686.987C1264.23 686.987 1271.65 679.595 1271.65 670.476C1271.65 661.357 1264.23 653.964 1255.08 653.964C1203.2 653.964 1161.14 695.855 1161.14 747.53C1161.14 756.649 1168.56 764.042 1177.71 764.042C1186.86 764.042 1194.29 756.649 1194.29 747.53Z" fill="#E5E0D5"/>
<path fill-rule="evenodd" clip-rule="evenodd" d="M1194.2 747.507C1194.2 738.374 1186.79 730.971 1177.67 730.971C1168.54 730.971 1161.14 738.374 1161.14 747.507C1161.14 756.638 1168.54 764.042 1177.67 764.042C1186.79 764.042 1194.2 756.638 1194.2 747.507Z" fill="#FD6234"/>
<path fill-rule="evenodd" clip-rule="evenodd" d="M1029.6 874.163C1014.36 874.163 1002.01 886.517 1002.01 901.757C1002.01 916.997 1014.36 929.352 1029.6 929.352C1044.84 929.352 1057.19 916.997 1057.19 901.757C1057.19 886.517 1044.84 874.163 1029.6 874.163ZM968.909 901.757C968.909 868.229 996.081 841.049 1029.6 841.049C1063.12 841.049 1090.29 868.229 1090.29 901.757C1090.29 935.286 1063.12 962.466 1029.6 962.466C996.081 962.466 968.909 935.286 968.909 901.757Z" fill="#FFC735"/>
<path d="M698.761 794.75C707.895 794.75 715.3 802.173 715.3 811.328C715.3 826.587 727.641 838.957 742.864 838.957H853.122C868.345 838.957 880.686 826.587 880.686 811.328C880.686 802.173 888.091 794.75 897.225 794.75C906.359 794.75 913.764 802.173 913.764 811.328C913.764 831.674 903.791 849.685 888.478 860.718C892.364 874.978 905.455 885.374 921.482 885.374H985.431C994.565 885.374 1001.97 892.796 1001.97 901.952C1001.97 911.107 994.565 918.529 985.431 918.529H921.482C891.568 918.529 865.873 899.311 857.282 871.972C855.907 872.065 854.52 872.112 853.122 872.112H742.864C709.372 872.112 682.223 844.898 682.223 811.328C682.223 802.173 689.628 794.75 698.761 794.75Z" fill="#E5E0D5"/>
<path fill-rule="evenodd" clip-rule="evenodd" d="M562.967 597.271C596.486 597.271 623.657 624.416 623.657 657.901V768.136C623.657 801.622 596.486 828.766 562.967 828.766C529.448 828.766 502.276 801.622 502.276 768.136V657.901C502.276 624.416 529.448 597.271 562.967 597.271ZM590.554 657.901C590.554 642.681 578.202 630.342 562.967 630.342C547.731 630.342 535.38 642.681 535.38 657.901V768.136C535.38 783.357 547.731 795.695 562.967 795.695C578.202 795.695 590.554 783.357 590.554 768.136V657.901Z" fill="#B4D51E"/>
<path fill-rule="evenodd" clip-rule="evenodd" d="M698.753 827.821C707.882 827.821 715.284 820.407 715.284 811.262C715.284 796.019 727.619 783.663 742.834 783.663V783.663H853.038C868.254 783.663 880.589 796.019 880.589 811.262C880.589 820.407 887.99 827.821 897.119 827.821C906.248 827.821 913.65 820.407 913.65 811.262C913.65 793.863 906.344 778.174 894.639 767.103C906.344 756.033 913.65 740.343 913.65 722.945V672.162C913.65 638.628 886.513 611.445 853.038 611.445C843.909 611.445 836.507 618.859 836.507 628.004C836.507 637.149 843.909 644.563 853.038 644.563C868.254 644.563 880.589 656.92 880.589 672.162V722.945C880.589 738.187 868.254 750.544 853.038 750.544H742.836C742.835 750.544 742.836 750.544 742.836 750.544C709.36 750.544 682.223 777.728 682.223 811.262C682.223 820.407 689.624 827.821 698.753 827.821Z" fill="#B4D51E"/>
<path fill-rule="evenodd" clip-rule="evenodd" d="M913.693 811.049C913.693 826.289 926.044 838.644 941.279 838.644C956.515 838.644 968.866 826.289 968.866 811.049C968.866 795.809 956.515 783.455 941.279 783.455C932.138 783.455 924.727 776.042 924.727 766.898C924.727 757.754 932.138 750.341 941.279 750.341C974.798 750.341 1001.97 777.521 1001.97 811.049C1001.97 844.578 974.798 871.758 941.279 871.758C907.761 871.758 880.589 844.578 880.589 811.049C880.589 801.906 888 794.493 897.141 794.493C906.282 794.493 913.693 801.906 913.693 811.049Z" fill="#463C74"/>
<path fill-rule="evenodd" clip-rule="evenodd" d="M772.862 675.46C772.862 660.22 760.511 647.865 745.275 647.865C730.039 647.865 717.688 660.22 717.688 675.46C717.688 690.7 730.039 703.054 745.275 703.054C754.416 703.054 761.827 710.468 761.827 719.611C761.827 728.755 754.416 736.168 745.275 736.168C711.756 736.168 684.584 708.988 684.584 675.46C684.584 641.931 711.756 614.752 745.275 614.752C778.794 614.752 805.966 641.931 805.966 675.46C805.966 684.604 798.555 692.017 789.414 692.017C780.273 692.017 772.862 684.604 772.862 675.46Z" fill="#463C74"/>
<g filter="url(#filter4_f)">
<path fill-rule="evenodd" clip-rule="evenodd" d="M546.673 764.937C546.673 744.584 530.317 728.219 510.306 728.219C490.294 728.219 473.938 744.584 473.938 764.937C473.938 776.182 478.922 786.215 486.81 792.966C493.755 798.909 494.581 809.372 488.654 816.335C482.727 823.299 472.293 824.127 465.349 818.184C450.39 805.383 440.877 786.261 440.877 764.937C440.877 726.422 471.888 695.066 510.306 695.066C548.724 695.066 579.734 726.422 579.734 764.937C579.734 774.092 572.332 781.514 563.203 781.514C554.074 781.514 546.673 774.092 546.673 764.937Z" fill="#FD6234"/>
</g>
<path fill-rule="evenodd" clip-rule="evenodd" d="M913.65 810.813C913.65 819.945 906.249 827.349 897.119 827.349C887.99 827.349 880.589 819.945 880.589 810.813C880.589 801.681 887.99 794.278 897.119 794.278C906.249 794.278 913.65 801.681 913.65 810.813Z" fill="#FD6234"/>
<path fill-rule="evenodd" clip-rule="evenodd" d="M715.284 811.286C715.284 820.418 707.882 827.821 698.753 827.821C689.624 827.821 682.223 820.418 682.223 811.286C682.223 802.154 689.624 794.75 698.753 794.75C707.882 794.75 715.284 802.154 715.284 811.286Z" fill="#FD6234"/>
<path fill-rule="evenodd" clip-rule="evenodd" d="M1001.97 901.994C1001.97 911.126 994.569 918.529 985.44 918.529C976.31 918.529 968.909 911.126 968.909 901.994C968.909 892.862 976.31 885.458 985.44 885.458C994.569 885.458 1001.97 892.862 1001.97 901.994Z" fill="#FD6234"/>
<path fill-rule="evenodd" clip-rule="evenodd" d="M1046.37 901.521C1046.37 910.653 1038.96 918.057 1029.84 918.057C1020.71 918.057 1013.31 910.653 1013.31 901.521C1013.31 892.389 1020.71 884.986 1029.84 884.986C1038.96 884.986 1046.37 892.389 1046.37 901.521Z" fill="#FD6234"/>
<path fill-rule="evenodd" clip-rule="evenodd" d="M820.168 827.864C804.984 827.864 792.674 840.219 792.674 855.459C792.674 870.699 804.984 883.053 820.168 883.053C829.279 883.053 836.665 890.466 836.665 899.61C836.665 908.754 829.279 916.167 820.168 916.167C786.761 916.167 759.68 888.987 759.68 855.459C759.68 821.93 786.761 794.75 820.168 794.75C829.279 794.75 836.665 802.163 836.665 811.307C836.665 820.451 829.279 827.864 820.168 827.864Z" fill="#FFC735"/>
<path fill-rule="evenodd" clip-rule="evenodd" d="M854.111 532.075C833.078 532.075 815.471 549.532 815.471 571.76C815.471 593.988 833.078 611.445 854.111 611.445C863.256 611.445 870.671 618.848 870.671 627.98C870.671 637.112 863.256 644.515 854.111 644.515C814.171 644.515 782.351 611.631 782.351 571.76C782.351 531.889 814.171 499.004 854.111 499.004C863.256 499.004 870.671 506.408 870.671 515.54C870.671 524.672 863.256 532.075 854.111 532.075Z" fill="#FFC735"/>
<path fill-rule="evenodd" clip-rule="evenodd" d="M745.026 736.229C702.999 736.229 668.93 770.347 668.93 812.433C668.93 845.98 641.774 873.175 608.274 873.175C574.774 873.175 547.617 845.98 547.617 812.433C547.617 803.284 555.024 795.867 564.16 795.867C573.296 795.867 580.703 803.284 580.703 812.433C580.703 827.681 593.047 840.043 608.274 840.043C623.501 840.043 635.845 827.681 635.845 812.433C635.845 752.049 684.727 703.097 745.026 703.097C754.162 703.097 761.569 710.515 761.569 719.663C761.569 728.812 754.162 736.229 745.026 736.229Z" fill="#FFC735"/>
<path d="M566.51 597.271C635.894 597.271 692.141 541.007 692.141 471.603C692.141 462.471 699.543 455.068 708.672 455.068C717.801 455.068 725.202 462.471 725.202 471.603C725.202 559.272 654.153 630.342 566.51 630.342C557.38 630.342 549.979 622.939 549.979 613.807C549.979 604.675 557.38 597.271 566.51 597.271Z" fill="#E5E0D5"/>
<path d="M1053.89 42.2237C994.733 42.2237 946.777 90.1936 946.777 149.367C946.777 158.518 939.361 165.936 930.214 165.936C921.066 165.936 913.65 158.518 913.65 149.367C913.65 71.8923 976.438 9.08657 1053.89 9.08657C1063.04 9.08657 1070.45 16.5045 1070.45 25.6552C1070.45 34.8058 1063.04 42.2237 1053.89 42.2237Z" fill="#E5E0D5"/>
<path fill-rule="evenodd" clip-rule="evenodd" d="M1025.11 799.002C1025.11 756.994 991.069 722.94 949.072 722.94C939.943 722.94 932.542 715.536 932.542 706.405C932.542 697.273 939.943 689.869 949.072 689.869C1009.33 689.869 1058.17 738.73 1058.17 799.002C1058.17 808.134 1050.77 815.538 1041.64 815.538C1032.51 815.538 1025.11 808.134 1025.11 799.002Z" fill="#FD6234"/>
<path fill-rule="evenodd" clip-rule="evenodd" d="M38.0056 853.333C38.0056 895.341 72.0498 929.395 114.046 929.395C123.175 929.395 130.576 936.798 130.576 945.93C130.576 955.062 123.175 962.466 114.046 962.466C53.7908 962.466 4.94457 913.605 4.94458 853.333C4.94458 844.201 12.3455 836.797 21.4751 836.797C30.6045 836.797 38.0056 844.201 38.0056 853.333Z" fill="#B4D51E"/>
<path fill-rule="evenodd" clip-rule="evenodd" d="M473.964 685.565C446.011 685.565 423.35 708.233 423.35 736.194C423.35 745.312 415.961 752.703 406.846 752.703C397.731 752.703 390.341 745.312 390.341 736.194C390.341 689.996 427.78 652.547 473.964 652.547C483.079 652.547 490.469 659.938 490.469 669.056C490.469 678.173 483.079 685.565 473.964 685.565Z" fill="#FFC735"/>
<path fill-rule="evenodd" clip-rule="evenodd" d="M836.665 811.286C836.665 820.418 829.264 827.821 820.135 827.821C811.005 827.821 803.604 820.418 803.604 811.286C803.604 802.154 811.005 794.75 820.135 794.75C829.264 794.75 836.665 802.154 836.665 811.286Z" fill="#FD6234"/>
<path fill-rule="evenodd" clip-rule="evenodd" d="M762.041 719.633C762.041 728.765 754.64 736.168 745.511 736.168C736.382 736.168 728.98 728.765 728.98 719.633C728.98 710.501 736.382 703.097 745.511 703.097C754.64 703.097 762.041 710.501 762.041 719.633Z" fill="#FD6234"/>
<path fill-rule="evenodd" clip-rule="evenodd" d="M761.569 584.043C761.569 593.175 754.168 600.579 745.039 600.579C735.91 600.579 728.508 593.175 728.508 584.043C728.508 574.911 735.91 567.508 745.039 567.508C754.168 567.508 761.569 574.911 761.569 584.043Z" fill="#FD6234"/>
<path fill-rule="evenodd" clip-rule="evenodd" d="M761.569 539.634C761.569 548.766 754.168 556.169 745.039 556.169C735.91 556.169 728.508 548.766 728.508 539.634C728.508 530.502 735.91 523.099 745.039 523.099C754.168 523.099 761.569 530.502 761.569 539.634Z" fill="#FD6234"/>
<path fill-rule="evenodd" clip-rule="evenodd" d="M729.925 357.273C729.925 366.405 722.524 373.808 713.395 373.808C704.266 373.808 696.864 366.405 696.864 357.273C696.864 348.141 704.266 340.738 713.395 340.738C722.524 340.738 729.925 348.141 729.925 357.273Z" fill="#FD6234"/>
<path fill-rule="evenodd" clip-rule="evenodd" d="M870.67 627.98C870.67 637.112 863.269 644.515 854.14 644.515C845.011 644.515 837.609 637.112 837.609 627.98C837.609 618.848 845.011 611.445 854.14 611.445C863.269 611.445 870.67 618.848 870.67 627.98Z" fill="#FD6234"/>
<path fill-rule="evenodd" clip-rule="evenodd" d="M351.377 100.697C336.141 100.697 323.79 88.342 323.79 73.1019C323.79 57.8618 336.141 45.5072 351.377 45.5072C366.612 45.5072 378.963 57.8618 378.963 73.1019C378.963 88.342 366.612 100.697 351.377 100.697ZM290.686 73.1019C290.686 106.63 317.858 133.81 351.377 133.81C384.895 133.81 412.067 106.63 412.067 73.1019C412.067 39.5737 384.895 12.3936 351.377 12.3936C317.858 12.3936 290.686 39.5736 290.686 73.1019Z" fill="#FFC735"/>
<path fill-rule="evenodd" clip-rule="evenodd" d="M20.5305 147.038C29.6601 147.038 37.061 154.45 37.061 163.593C37.061 178.83 49.396 191.183 64.6118 191.183H174.815C190.031 191.183 202.366 178.83 202.366 163.593C202.366 154.45 209.767 147.038 218.897 147.038C228.026 147.038 235.427 154.45 235.427 163.593C235.427 197.116 208.291 224.291 174.815 224.291H66.8365C66.8297 224.291 66.8227 224.291 66.8159 224.291C51.6 224.291 39.2651 236.644 39.2651 251.882V362.243C39.2651 377.481 51.6 389.834 66.8159 389.834C75.9455 389.834 83.3464 397.245 83.3464 406.388C83.3464 415.53 75.9455 422.942 66.8159 422.942C33.3409 422.942 6.20406 395.767 6.20406 362.243V251.882C6.20406 235.027 13.0639 219.776 24.1402 208.778C11.7771 197.666 4 181.538 4 163.593C4 154.45 11.401 147.038 20.5305 147.038Z" fill="#B4D51E"/>
<path d="M179.16 103.255C187.892 76.3001 213.269 56.8028 243.213 56.8028H307.199C316.338 56.8028 323.747 64.1885 323.747 73.2994C323.747 82.4102 316.338 89.7961 307.199 89.7961H243.213C227.571 89.7961 214.382 100.264 210.311 114.557C225.527 125.549 235.427 143.424 235.427 163.607C235.427 172.721 228.026 180.109 218.897 180.109C209.767 180.109 202.366 172.721 202.366 163.607C202.366 148.418 190.031 136.105 174.815 136.105H64.6118C49.396 136.105 37.061 148.418 37.061 163.607C37.061 172.721 29.6601 180.109 20.5305 180.109C11.401 180.109 4 172.721 4 163.607C4 130.191 31.1368 103.102 64.6118 103.102H174.815C176.276 103.102 177.725 103.153 179.16 103.255H179.16Z" fill="#E5E0D5"/>
<path fill-rule="evenodd" clip-rule="evenodd" d="M235.47 163.81C235.47 148.57 247.821 136.215 263.057 136.215C278.292 136.215 290.643 148.57 290.643 163.81C290.643 179.05 278.292 191.405 263.057 191.405C253.916 191.405 246.505 198.818 246.505 207.961C246.505 217.105 253.916 224.518 263.057 224.518C296.576 224.518 323.747 197.338 323.747 163.81C323.747 130.281 296.576 103.102 263.057 103.102C229.538 103.102 202.366 130.281 202.366 163.81C202.366 172.954 209.777 180.367 218.918 180.367C228.059 180.367 235.47 172.954 235.47 163.81Z" fill="#463C74"/>
<path fill-rule="evenodd" clip-rule="evenodd" d="M235.427 164.046C235.427 154.914 228.026 147.511 218.897 147.511C209.767 147.511 202.366 154.914 202.366 164.046C202.366 173.178 209.767 180.581 218.897 180.581C228.026 180.581 235.427 173.178 235.427 164.046Z" fill="#FD6234"/>
<path fill-rule="evenodd" clip-rule="evenodd" d="M37.061 163.574C37.061 154.442 29.6597 147.038 20.5305 147.038C11.4013 147.038 4 154.442 4 163.574C4 172.706 11.4013 180.109 20.5305 180.109C29.6597 180.109 37.061 172.706 37.061 163.574Z" fill="#463C74"/>
<path fill-rule="evenodd" clip-rule="evenodd" d="M218.896 264.203C218.896 255.071 211.495 247.668 202.366 247.668C193.237 247.668 185.835 255.071 185.835 264.203C185.835 273.335 193.237 280.738 202.366 280.738C211.495 280.738 218.896 273.335 218.896 264.203Z" fill="#463C74"/>
<path fill-rule="evenodd" clip-rule="evenodd" d="M218.896 308.14C218.896 299.008 211.495 291.604 202.366 291.604C193.237 291.604 185.835 299.008 185.835 308.14C185.835 317.271 193.237 324.675 202.366 324.675C211.495 324.675 218.896 317.271 218.896 308.14Z" fill="#463C74"/>
<path fill-rule="evenodd" clip-rule="evenodd" d="M362.476 327.037C362.476 317.905 355.074 310.502 345.945 310.502C336.816 310.502 329.415 317.905 329.415 327.037C329.415 336.169 336.816 343.572 345.945 343.572C355.074 343.572 362.476 336.169 362.476 327.037Z" fill="#463C74"/>
<path fill-rule="evenodd" clip-rule="evenodd" d="M407.816 324.675C407.816 315.543 400.415 308.14 391.286 308.14C382.157 308.14 374.755 315.543 374.755 324.675C374.755 333.807 382.157 341.21 391.286 341.21C400.415 341.21 407.816 333.807 407.816 324.675Z" fill="#463C74"/>
<path fill-rule="evenodd" clip-rule="evenodd" d="M407.816 370.974C407.816 361.842 400.415 354.438 391.286 354.438C382.157 354.438 374.755 361.842 374.755 370.974C374.755 380.106 382.157 387.509 391.286 387.509C400.415 387.509 407.816 380.106 407.816 370.974Z" fill="#463C74"/>
<path fill-rule="evenodd" clip-rule="evenodd" d="M182.529 946.875C182.529 937.743 175.128 930.34 165.999 930.34C156.87 930.34 149.468 937.743 149.468 946.875C149.468 956.007 156.87 963.411 165.999 963.411C175.128 963.411 182.529 956.007 182.529 946.875Z" fill="#463C74"/>
<path fill-rule="evenodd" clip-rule="evenodd" d="M232.121 946.875C232.121 937.743 224.72 930.34 215.591 930.34C206.461 930.34 199.06 937.743 199.06 946.875C199.06 956.007 206.461 963.411 215.591 963.411C224.72 963.411 232.121 956.007 232.121 946.875Z" fill="#FD6234"/>
<path fill-rule="evenodd" clip-rule="evenodd" d="M381.368 945.93C381.368 936.798 373.966 929.395 364.837 929.395C355.708 929.395 348.307 936.798 348.307 945.93C348.307 955.062 355.708 962.466 364.837 962.466C373.966 962.466 381.368 955.062 381.368 945.93Z" fill="#463C74"/>
<path fill-rule="evenodd" clip-rule="evenodd" d="M323.747 73.3381C323.747 64.206 316.346 56.8028 307.217 56.8028C298.087 56.8028 290.686 64.206 290.686 73.3381C290.686 82.4703 298.087 89.8734 307.217 89.8734C316.346 89.8734 323.747 82.4703 323.747 73.3381Z" fill="#FD6234"/>
<path fill-rule="evenodd" clip-rule="evenodd" d="M368.144 73.3381C368.144 64.2058 360.742 56.8028 351.613 56.8028C342.484 56.8028 335.083 64.2058 335.083 73.3381C335.083 82.4703 342.484 89.8734 351.613 89.8734C360.742 89.8734 368.144 82.4703 368.144 73.3381Z" fill="#FD6234"/>
<path fill-rule="evenodd" clip-rule="evenodd" d="M163.671 146.995C148.487 146.995 136.177 134.641 136.177 119.401C136.177 104.161 148.487 91.8061 163.671 91.8061C172.782 91.8061 180.168 84.3934 180.168 75.2493C180.168 66.1052 172.782 58.6925 163.671 58.6925C130.264 58.6925 103.183 85.8725 103.183 119.401C103.183 152.929 130.264 180.109 163.671 180.109C172.782 180.109 180.168 172.696 180.168 163.552C180.168 154.408 172.782 146.995 163.671 146.995Z" fill="#FFC735"/>
<path fill-rule="evenodd" clip-rule="evenodd" d="M81.4573 313.809C123.454 313.809 157.498 347.863 157.498 389.871C157.498 399.003 164.899 406.407 174.028 406.407C183.157 406.407 190.559 399.003 190.559 389.871C190.559 329.599 141.712 280.738 81.4573 280.738C72.3277 280.738 64.9268 288.142 64.9268 297.274C64.9268 306.405 72.3277 313.809 81.4573 313.809Z" fill="#FD6234"/>
<path fill-rule="evenodd" clip-rule="evenodd" d="M84.291 406.407C84.291 397.275 76.8901 389.871 67.7605 389.871C58.6309 389.871 51.23 397.275 51.23 406.407C51.23 415.539 58.6309 422.942 67.7605 422.942C76.8901 422.942 84.291 415.539 84.291 406.407Z" fill="#FD6234"/>
<path fill-rule="evenodd" clip-rule="evenodd" d="M805.965 719.633C805.965 728.765 798.564 736.168 789.435 736.168C780.306 736.168 772.904 728.765 772.904 719.633C772.904 710.501 780.306 703.097 789.435 703.097C798.564 703.097 805.965 710.501 805.965 719.633Z" fill="#463C74"/>
<path fill-rule="evenodd" clip-rule="evenodd" d="M849.889 719.633C849.889 728.765 842.488 736.168 833.359 736.168C824.229 736.168 816.828 728.765 816.828 719.633C816.828 710.501 824.229 703.097 833.359 703.097C842.488 703.097 849.889 710.501 849.889 719.633Z" fill="#463C74"/>
<path fill-rule="evenodd" clip-rule="evenodd" d="M579.734 613.807C579.734 622.939 572.333 630.342 563.203 630.342C554.074 630.342 546.673 622.939 546.673 613.807C546.673 604.675 554.074 597.271 563.203 597.271C572.333 597.271 579.734 604.675 579.734 613.807Z" fill="#FD6234"/>
<path fill-rule="evenodd" clip-rule="evenodd" d="M580.678 812.231C580.678 821.362 573.277 828.766 564.148 828.766C555.018 828.766 547.617 821.362 547.617 812.231C547.617 803.099 555.018 795.695 564.148 795.695C573.277 795.695 580.678 803.099 580.678 812.231Z" fill="#FD6234"/>
<path fill-rule="evenodd" clip-rule="evenodd" d="M764.93 159.322C746.248 159.322 730.925 174.571 730.925 193.603C730.925 212.634 746.248 227.883 764.93 227.883C832.818 227.883 887.673 283.162 887.673 351.131C887.673 360.263 880.26 367.667 871.115 367.667C861.971 367.667 854.557 360.263 854.557 351.131C854.557 301.229 814.331 260.953 764.93 260.953C727.762 260.953 697.809 230.7 697.809 193.603C697.809 156.504 727.762 126.251 764.93 126.251C774.076 126.251 781.488 133.655 781.488 142.786C781.488 151.918 774.076 159.322 764.93 159.322Z" fill="#FFC735"/>
<path fill-rule="evenodd" clip-rule="evenodd" d="M854.14 351.169C854.14 401.366 814.014 441.765 764.875 441.765C755.746 441.765 748.345 449.185 748.345 458.338C748.345 467.49 755.746 474.91 764.875 474.91C832.595 474.91 887.201 419.347 887.201 351.169C887.201 342.016 879.8 334.596 870.67 334.596C861.541 334.596 854.14 342.016 854.14 351.169Z" fill="#FD6234"/>
<path fill-rule="evenodd" clip-rule="evenodd" d="M870.671 367.667C861.541 367.667 854.14 360.263 854.14 351.131C854.14 342 861.541 334.596 870.671 334.596C879.8 334.596 887.201 342 887.201 351.131C887.201 360.263 879.8 367.667 870.671 367.667Z" fill="#463C74"/>
<path fill-rule="evenodd" clip-rule="evenodd" d="M645.856 250.975C654.985 250.975 662.386 258.389 662.386 267.535V339.296C662.386 348.441 654.985 355.856 645.856 355.856C636.726 355.856 629.325 348.441 629.325 339.296V267.535C629.325 258.389 636.726 250.975 645.856 250.975Z" fill="#B4D51E"/>
<path fill-rule="evenodd" clip-rule="evenodd" d="M374.723 157.921C374.723 219.471 324.842 269.367 263.309 269.367C254.171 269.367 246.762 276.778 246.762 285.919C246.762 295.06 254.171 302.47 263.309 302.47C343.118 302.47 407.817 237.753 407.817 157.921C407.817 148.78 400.408 141.369 391.27 141.369C382.132 141.369 374.723 148.78 374.723 157.921Z" fill="#B4D51E"/>
<g filter="url(#filter5_f)">
<path d="M919.318 193.337C919.318 202.469 911.903 209.873 902.757 209.873H762.544C753.398 209.873 745.983 202.469 745.983 193.337C745.983 184.205 753.398 176.802 762.544 176.802H902.757C911.903 176.802 919.318 184.205 919.318 193.337Z" fill="#E5E0D5"/>
</g>
<path fill-rule="evenodd" clip-rule="evenodd" d="M407.816 157.904C407.816 148.773 400.415 141.369 391.286 141.369C382.157 141.369 374.755 148.773 374.755 157.904C374.755 167.036 382.157 174.44 391.286 174.44C400.415 174.44 407.816 167.036 407.816 157.904Z" fill="#FD6234"/>
<path fill-rule="evenodd" clip-rule="evenodd" d="M886.138 157.786C879.682 164.243 869.215 164.243 862.76 157.786C856.305 151.328 856.305 140.858 862.76 134.401C869.215 127.944 879.682 127.944 886.138 134.401C892.593 140.858 892.593 151.328 886.138 157.786Z" fill="#463C74"/>
<path fill-rule="evenodd" clip-rule="evenodd" d="M773.73 108.18C767.275 114.637 756.808 114.637 750.353 108.18C743.897 101.722 743.897 91.2527 750.353 84.7953C756.808 78.3379 767.275 78.3379 773.73 84.7953C780.186 91.2527 780.186 101.722 773.73 108.18Z" fill="#463C74"/>
<path fill-rule="evenodd" clip-rule="evenodd" d="M4 515.54C4 506.408 11.401 499.004 20.5305 499.004H73.4281C82.5577 499.004 89.9586 506.408 89.9586 515.54C89.9586 524.672 82.5577 532.075 73.4281 532.075H20.5305C11.401 532.075 4 524.672 4 515.54Z" fill="#463C74"/>
<path fill-rule="evenodd" clip-rule="evenodd" d="M530.142 960.104C521.013 960.104 513.612 952.715 513.612 943.601V896.292C513.612 887.178 521.013 879.789 530.142 879.789C539.272 879.789 546.673 887.178 546.673 896.292V943.601C546.673 952.715 539.272 960.104 530.142 960.104Z" fill="#B4D51E"/>
<path fill-rule="evenodd" clip-rule="evenodd" d="M609.489 946.875C609.489 937.743 616.897 930.34 626.035 930.34H757.303C766.441 930.34 773.849 937.743 773.849 946.875C773.849 956.007 766.441 963.411 757.303 963.411H626.035C616.897 963.411 609.489 956.007 609.489 946.875Z" fill="#FFC735"/>
<path fill-rule="evenodd" clip-rule="evenodd" d="M4 27.0392C4 17.907 11.401 10.5039 20.5305 10.5039H96.5708C105.7 10.5039 113.101 17.907 113.101 27.0392C113.101 36.1714 105.7 43.5745 96.5708 43.5745H20.5305C11.401 43.5745 4 36.1714 4 27.0392Z" fill="#FD6234"/>
<path fill-rule="evenodd" clip-rule="evenodd" d="M761.57 963.411C752.44 963.411 745.039 956.007 745.039 946.875C745.039 937.743 752.44 930.34 761.57 930.34C770.699 930.34 778.1 937.743 778.1 946.875C778.1 956.007 770.699 963.411 761.57 963.411Z" fill="#FD6234"/>
<path fill-rule="evenodd" clip-rule="evenodd" d="M713.421 115.333C685.467 115.333 662.807 138 662.807 165.962C662.807 175.079 655.417 182.471 646.302 182.471C637.186 182.471 629.798 175.079 629.798 165.962C629.798 119.764 667.237 82.3144 713.421 82.3144C722.536 82.3144 729.925 89.7059 729.925 98.8238C729.925 107.942 722.536 115.333 713.421 115.333Z" fill="#FD6234"/>
<path fill-rule="evenodd" clip-rule="evenodd" d="M634.64 154.244C641.094 147.786 651.561 147.786 658.017 154.244C664.473 160.701 664.473 171.17 658.017 177.628C651.561 184.086 641.094 184.086 634.64 177.628C628.184 171.17 628.184 160.701 634.64 154.244Z" fill="#463C74"/>
<path fill-rule="evenodd" clip-rule="evenodd" d="M962.297 637.901C1020.73 637.901 1068.09 590.521 1068.09 532.075C1068.09 522.943 1075.49 515.54 1084.62 515.54C1093.75 515.54 1101.15 522.943 1101.15 532.075C1101.15 608.786 1038.99 670.972 962.297 670.972C953.168 670.972 945.767 663.568 945.767 654.436C945.767 645.304 953.168 637.901 962.297 637.901Z" fill="#B4D51E"/>
<path fill-rule="evenodd" clip-rule="evenodd" d="M1096.31 543.767C1089.86 550.225 1079.39 550.225 1072.93 543.767C1066.48 537.31 1066.48 526.839 1072.93 520.383C1079.39 513.925 1089.86 513.925 1096.31 520.383C1102.77 526.839 1102.77 537.31 1096.31 543.767Z" fill="#463C74"/>
<path fill-rule="evenodd" clip-rule="evenodd" d="M1143.07 543.767C1136.61 550.225 1126.14 550.225 1119.69 543.767C1113.24 537.31 1113.24 526.839 1119.69 520.383C1126.14 513.925 1136.61 513.925 1143.07 520.383C1149.53 526.839 1149.53 537.31 1143.07 543.767Z" fill="#463C74"/>
<path fill-rule="evenodd" clip-rule="evenodd" d="M1253.68 605.829C1174.42 605.829 1110.18 670.094 1110.18 749.369C1110.18 758.516 1102.77 765.932 1093.62 765.932C1084.48 765.932 1077.07 758.516 1077.07 749.369C1077.07 651.8 1156.13 572.705 1253.68 572.705C1262.82 572.705 1270.24 580.12 1270.24 589.267C1270.24 598.414 1262.82 605.829 1253.68 605.829Z" fill="#FFC735"/>
<path fill-rule="evenodd" clip-rule="evenodd" d="M919.318 193.254C919.364 202.386 912.001 209.827 902.871 209.872C893.741 209.919 886.303 202.554 886.257 193.42C886.211 184.288 893.575 176.848 902.704 176.802C911.834 176.756 919.272 184.122 919.318 193.254Z" fill="#FD6234"/>
<path fill-rule="evenodd" clip-rule="evenodd" d="M1070.45 25.5383C1070.5 34.6705 1063.14 42.1109 1054.01 42.157C1044.88 42.2032 1037.44 34.8376 1037.39 25.7054C1037.35 16.5734 1044.71 9.13297 1053.84 9.08678C1062.97 9.04059 1070.41 16.4063 1070.45 25.5383Z" fill="#FD6234"/>
<path fill-rule="evenodd" clip-rule="evenodd" d="M919.318 26.9556C919.364 36.0878 912.001 43.5282 902.871 43.5743C893.741 43.6205 886.303 36.2549 886.257 27.1228C886.211 17.9907 893.575 10.5503 902.704 10.5041C911.834 10.4579 919.272 17.8236 919.318 26.9556Z" fill="#FD6234"/>
<path fill-rule="evenodd" clip-rule="evenodd" d="M919.318 70.8923C919.364 80.0245 912.001 87.4649 902.871 87.511C893.741 87.5572 886.303 80.1916 886.257 71.0594C886.211 61.9274 893.575 54.487 902.704 54.4408C911.834 54.3946 919.272 61.7603 919.318 70.8923Z" fill="#FD6234"/>
<path d="M1245.19 548.61H1179.57C1170.44 548.61 1163.02 541.207 1163.02 532.075C1163.02 522.943 1170.44 515.54 1179.57 515.54H1245.19C1254.32 515.54 1261.74 522.943 1261.74 532.075C1261.74 541.207 1254.32 548.61 1245.19 548.61Z" fill="#E5E0D5"/>
<path fill-rule="evenodd" clip-rule="evenodd" d="M1270.24 589.24C1270.24 598.372 1262.83 605.775 1253.71 605.775C1244.58 605.775 1237.18 598.372 1237.18 589.24C1237.18 580.108 1244.58 572.705 1253.71 572.705C1262.83 572.705 1270.24 580.108 1270.24 589.24Z" fill="#FD6234"/>
<path fill-rule="evenodd" clip-rule="evenodd" d="M1081.27 149.164C1081.27 133.924 1068.92 121.57 1053.69 121.57C1038.45 121.57 1026.1 133.924 1026.1 149.164C1026.1 164.404 1038.45 176.759 1053.69 176.759C1062.83 176.759 1070.24 184.172 1070.24 193.316C1070.24 202.46 1062.83 209.873 1053.69 209.873C1020.17 209.873 992.996 182.693 992.996 149.164C992.996 115.636 1020.17 88.4561 1053.69 88.4561C1087.21 88.4561 1114.38 115.636 1114.38 149.164C1114.38 158.308 1106.96 165.721 1097.83 165.721C1088.68 165.721 1081.27 158.308 1081.27 149.164Z" fill="#463C74"/>
<path d="M1166.36 35.1136C1151.18 35.1136 1138.87 47.4682 1138.87 62.7082C1138.87 77.9483 1151.18 90.3029 1166.36 90.3029C1175.47 90.3029 1182.86 97.7156 1182.86 106.86C1182.86 116.003 1175.47 123.416 1166.36 123.416C1132.95 123.416 1105.88 96.2365 1105.88 62.7082C1105.88 29.18 1132.95 2 1166.36 2C1175.47 2 1182.86 9.41273 1182.86 18.5568C1182.86 27.7009 1175.47 35.1136 1166.36 35.1136Z" fill="#E5E0D5"/>
<path fill-rule="evenodd" clip-rule="evenodd" d="M1071.4 193.337C1071.4 202.469 1064 209.873 1054.87 209.873C1045.74 209.873 1038.34 202.469 1038.34 193.337C1038.34 184.205 1045.74 176.802 1054.87 176.802C1064 176.802 1071.4 184.205 1071.4 193.337Z" fill="#FD6234"/>
<path fill-rule="evenodd" clip-rule="evenodd" d="M1183.81 106.881C1183.81 116.013 1176.4 123.416 1167.28 123.416C1158.15 123.416 1150.74 116.013 1150.74 106.881C1150.74 97.7489 1158.15 90.3459 1167.28 90.3459C1176.4 90.3459 1183.81 97.7489 1183.81 106.881Z" fill="#463C74"/>
<path fill-rule="evenodd" clip-rule="evenodd" d="M1115.79 193.337C1115.79 202.469 1108.39 209.873 1099.26 209.873C1090.13 209.873 1082.73 202.469 1082.73 193.337C1082.73 184.205 1090.13 176.802 1099.26 176.802C1108.39 176.802 1115.79 184.205 1115.79 193.337Z" fill="#463C74"/>
<path fill-rule="evenodd" clip-rule="evenodd" d="M1159.72 193.337C1159.72 202.469 1152.31 209.873 1143.19 209.873C1134.06 209.873 1126.66 202.469 1126.66 193.337C1126.66 184.205 1134.06 176.802 1143.19 176.802C1152.31 176.802 1159.72 184.205 1159.72 193.337Z" fill="#463C74"/>
<path fill-rule="evenodd" clip-rule="evenodd" d="M1185.22 61.9996C1185.22 71.1318 1177.82 78.5349 1168.69 78.5349C1159.57 78.5349 1152.16 71.1318 1152.16 61.9996C1152.16 52.8673 1159.57 45.4643 1168.69 45.4643C1177.82 45.4643 1185.22 52.8673 1185.22 61.9996Z" fill="#FD6234"/>
<path fill-rule="evenodd" clip-rule="evenodd" d="M1229.15 61.9996C1229.15 71.1318 1221.74 78.5349 1212.62 78.5349C1203.49 78.5349 1196.09 71.1318 1196.09 61.9996C1196.09 52.8673 1203.49 45.4643 1212.62 45.4643C1221.74 45.4643 1229.15 52.8673 1229.15 61.9996Z" fill="#FD6234"/>
<path fill-rule="evenodd" clip-rule="evenodd" d="M1273.54 61.9996C1273.54 71.1318 1266.14 78.5349 1257.01 78.5349C1247.89 78.5349 1240.48 71.1318 1240.48 61.9996C1240.48 52.8673 1247.89 45.4643 1257.01 45.4643C1266.14 45.4643 1273.54 52.8673 1273.54 61.9996Z" fill="#FD6234"/>
<path fill-rule="evenodd" clip-rule="evenodd" d="M1213.09 356.801C1203.96 356.801 1196.56 349.397 1196.56 340.265C1196.56 331.133 1203.96 323.73 1213.09 323.73C1222.21 323.73 1229.62 331.133 1229.62 340.265C1229.62 349.397 1222.21 356.801 1213.09 356.801Z" fill="#463C74"/>
</g>
<defs>
<filter id="filter0_f" x="0" y="682.562" width="129.381" height="129.416" filterUnits="userSpaceOnUse" color-interpolation-filters="sRGB">
<feFlood flood-opacity="0" result="BackgroundImageFix"/>
<feBlend mode="normal" in="SourceGraphic" in2="BackgroundImageFix" result="shape"/>
<feGaussianBlur stdDeviation="2" result="effect1_foregroundBlur"/>
</filter>
<filter id="filter1_f" x="30.2852" y="324.99" width="117.93" height="161.416" filterUnits="userSpaceOnUse" color-interpolation-filters="sRGB">
<feFlood flood-opacity="0" result="BackgroundImageFix"/>
<feBlend mode="normal" in="SourceGraphic" in2="BackgroundImageFix" result="shape"/>
<feGaussianBlur stdDeviation="10" result="effect1_foregroundBlur"/>
</filter>
<filter id="filter2_f" x="294.855" y="761.601" width="141.381" height="97.0073" filterUnits="userSpaceOnUse" color-interpolation-filters="sRGB">
<feFlood flood-opacity="0" result="BackgroundImageFix"/>
<feBlend mode="normal" in="SourceGraphic" in2="BackgroundImageFix" result="shape"/>
<feGaussianBlur stdDeviation="5" result="effect1_foregroundBlur"/>
</filter>
<filter id="filter3_f" x="547.536" y="0.0314484" width="180.11" height="180.156" filterUnits="userSpaceOnUse" color-interpolation-filters="sRGB">
<feFlood flood-opacity="0" result="BackgroundImageFix"/>
<feBlend mode="normal" in="SourceGraphic" in2="BackgroundImageFix" result="shape"/>
<feGaussianBlur stdDeviation="5" result="effect1_foregroundBlur"/>
</filter>
<filter id="filter4_f" x="436.877" y="691.066" width="146.856" height="135.086" filterUnits="userSpaceOnUse" color-interpolation-filters="sRGB">
<feFlood flood-opacity="0" result="BackgroundImageFix"/>
<feBlend mode="normal" in="SourceGraphic" in2="BackgroundImageFix" result="shape"/>
<feGaussianBlur stdDeviation="2" result="effect1_foregroundBlur"/>
</filter>
<filter id="filter5_f" x="737.983" y="168.802" width="189.334" height="49.0706" filterUnits="userSpaceOnUse" color-interpolation-filters="sRGB">
<feFlood flood-opacity="0" result="BackgroundImageFix"/>
<feBlend mode="normal" in="SourceGraphic" in2="BackgroundImageFix" result="shape"/>
<feGaussianBlur stdDeviation="4" result="effect1_foregroundBlur"/>
</filter>
</defs>
</svg>
