<svg width="125" height="125" viewBox="0 0 125 125" fill="none" xmlns="http://www.w3.org/2000/svg">
<path d="M13.5071 75.8945C21.2577 103.997 48.7031 118.518 75.5744 111.107C102.446 103.696 120.98 72.9418 110.817 49.0568C100.654 25.1718 77.0936 1.99864 48.7496 13.8439C20.4056 25.6892 5.75651 47.7919 13.5071 75.8945Z" fill="#009F72"/>
<path d="M90.1667 46.1167C90.169 45.7328 90.0954 45.3523 89.9503 44.997C89.8051 44.6416 89.5912 44.3184 89.3209 44.0459L76.9542 31.6792C76.6817 31.4089 76.3585 31.195 76.0031 31.0499C75.6478 30.9047 75.2673 30.8311 74.8834 30.8334C74.4996 30.8311 74.119 30.9047 73.7637 31.0499C73.4083 31.195 73.0851 31.4089 72.8126 31.6792L64.5584 39.9334L32.6793 71.8125C32.4089 72.0851 32.1951 72.4083 32.0499 72.7636C31.9048 73.119 31.8312 73.4995 31.8334 73.8834V86.25C31.8334 87.0236 32.1407 87.7655 32.6877 88.3124C33.2347 88.8594 33.9765 89.1667 34.7501 89.1667H47.1168C47.5249 89.1889 47.9331 89.1251 48.315 88.9794C48.6968 88.8336 49.0438 88.6093 49.3334 88.3209L81.0376 56.4417L89.3209 48.3334C89.5871 48.0507 89.804 47.7253 89.9626 47.3709C89.9907 47.1384 89.9907 46.9034 89.9626 46.6709C89.9762 46.5351 89.9762 46.3983 89.9626 46.2625L90.1667 46.1167ZM45.9209 83.3334H37.6668V75.0792L66.6293 46.1167L74.8834 54.3709L45.9209 83.3334ZM78.9959 50.2584L70.7418 42.0042L74.8834 37.8917L83.1084 46.1167L78.9959 50.2584Z" fill="white"/>
</svg>
